<svg width="1000" height="1000" viewBox="0 0 1000 1000" fill="none" xmlns="http://www.w3.org/2000/svg">
<g clip-path="url(#clip0_784_19)">
<rect width="1000" height="1000" fill="url(#paint0_linear_784_19)"/>
<path d="M398.082 669V503.912C398.082 487.802 394.094 475.44 386.119 466.827C378.144 458.054 366.979 453.668 352.623 453.668C312.747 453.668 292.809 477.913 292.809 526.402L277.975 461.324H297.594C299.029 444.257 305.25 431.576 316.256 423.282C327.262 414.828 343.372 410.602 364.586 410.602C391.383 410.602 412.118 418.736 426.793 435.006C441.467 451.275 448.805 474.244 448.805 503.912V669H398.082ZM242.086 669V310.113H292.809V669H242.086Z" fill="url(#paint1_linear_784_19)"/>
<path d="M551.195 779.059V415.387H597.133L601.918 468.98V779.059H551.195ZM673.935 673.785C654.475 673.785 638.764 669.319 626.801 660.387C614.997 651.454 608.298 639.013 606.703 623.062H584.691L601.918 550.807C601.918 576.965 607.022 596.824 617.23 610.382C627.598 623.94 642.751 630.719 662.689 630.719C683.106 630.719 698.578 623.461 709.105 608.946C719.633 594.431 724.896 572.978 724.896 544.586C724.896 514.599 719.633 491.949 709.105 476.637C698.578 461.324 683.106 453.668 662.689 453.668C642.751 453.668 627.598 460.447 617.23 474.005C607.022 487.563 601.918 507.421 601.918 533.58L584.691 461.324H604.311C606.544 445.374 613.721 432.932 625.844 424C638.126 415.068 654.156 410.602 673.935 410.602C707.271 410.602 732.473 421.926 749.54 444.576C766.607 467.226 775.141 500.562 775.141 544.586C775.141 587.014 766.607 619.155 749.54 641.007C732.473 662.859 707.271 673.785 673.935 673.785Z" fill="url(#paint2_linear_784_19)"/>
</g>
<defs>
<linearGradient id="paint0_linear_784_19" x1="500" y1="0" x2="500" y2="1000" gradientUnits="userSpaceOnUse">
<stop stop-color="#1B1B1B"/>
<stop offset="1" stop-color="#151515"/>
</linearGradient>
<linearGradient id="paint1_linear_784_19" x1="489" y1="499.5" x2="163.111" y2="499.5" gradientUnits="userSpaceOnUse">
<stop stop-color="#26C1B1"/>
<stop offset="1" stop-color="#198176"/>
</linearGradient>
<linearGradient id="paint2_linear_784_19" x1="340.96" y1="499.5" x2="799" y2="499.5" gradientUnits="userSpaceOnUse">
<stop stop-color="#D6D6D6"/>
<stop offset="1" stop-color="#999999"/>
</linearGradient>
<clipPath id="clip0_784_19">
<rect width="1000" height="1000" rx="5" fill="white"/>
</clipPath>
</defs>
</svg>
