<svg width="4274" height="488" viewBox="0 0 4274 488" fill="none" xmlns="http://www.w3.org/2000/svg">
<g clip-path="url(#clip0_784_24)">
<g clip-path="url(#clip1_784_24)">
<path d="M168.164 390V248.496C168.164 234.688 164.746 224.092 157.91 216.709C151.074 209.189 141.504 205.43 129.199 205.43C95.0195 205.43 77.9297 226.211 77.9297 267.773L65.2148 211.992H82.0312C83.2617 197.363 88.5938 186.494 98.0273 179.385C107.461 172.139 121.27 168.516 139.453 168.516C162.422 168.516 180.195 175.488 192.773 189.434C205.352 203.379 211.641 223.066 211.641 248.496V390H168.164ZM34.4531 390V82.3828H77.9297V390H34.4531ZM445.758 390V184.922H489.234V390H445.758ZM362.906 390V351.855H449.859V390H362.906ZM485.133 390V351.855H556.09V390H485.133ZM375.211 210.762V172.617H489.234V210.762H375.211ZM466.061 138.164C457.721 138.164 450.543 135.225 444.527 129.346C438.648 123.33 435.709 116.152 435.709 107.812C435.709 99.3359 438.648 92.1582 444.527 86.2793C450.543 80.4004 457.721 77.4609 466.061 77.4609C474.537 77.4609 481.715 80.4004 487.594 86.2793C493.473 92.1582 496.412 99.3359 496.412 107.812C496.412 116.152 493.473 123.33 487.594 129.346C481.715 135.225 474.537 138.164 466.061 138.164ZM697.512 488.027L695.461 448.242L765.188 446.191C787.199 445.508 803.195 439.424 813.176 427.939C823.156 416.455 828.215 399.57 828.352 377.285V218.555L832.453 172.617H871.828V370.723C871.828 409.414 863.01 437.988 845.373 456.445C827.736 474.902 799.641 484.746 761.086 485.977L697.512 488.027ZM766.623 394.102C738.186 394.102 716.584 384.736 701.818 366.006C687.189 347.275 679.875 319.727 679.875 283.359C679.875 245.625 687.189 217.051 701.818 197.637C716.584 178.223 738.186 168.516 766.623 168.516C783.576 168.516 797.316 172.344 807.844 180C818.371 187.656 824.523 198.32 826.301 211.992H843.117L828.352 273.926C828.352 251.504 823.908 234.482 815.021 222.861C806.271 211.24 793.352 205.43 776.262 205.43C758.762 205.43 745.5 211.992 736.477 225.117C727.453 238.242 722.941 257.656 722.941 283.359C722.941 307.695 727.453 326.084 736.477 338.525C745.5 350.967 758.762 357.188 776.262 357.188C793.352 357.188 806.271 351.377 815.021 339.756C823.908 328.135 828.352 311.113 828.352 288.691L843.117 350.625H824.25C822.883 364.297 817.072 374.961 806.818 382.617C796.701 390.273 783.303 394.102 766.623 394.102ZM1158.45 390V248.496C1158.45 234.688 1155.03 224.092 1148.19 216.709C1141.36 209.189 1131.79 205.43 1119.48 205.43C1085.3 205.43 1068.21 226.211 1068.21 267.773L1055.5 211.992H1072.31C1073.54 197.363 1078.88 186.494 1088.31 179.385C1097.74 172.139 1111.55 168.516 1129.73 168.516C1152.7 168.516 1170.48 175.488 1183.05 189.434C1195.63 203.379 1201.92 223.066 1201.92 248.496V390H1158.45ZM1024.73 390V82.3828H1068.21V390H1024.73Z" fill="url(#paint0_linear_784_24)"/>
<path d="M1381.45 484.336V172.617H1420.83L1424.93 218.555V484.336H1381.45ZM1486.66 394.102C1469.98 394.102 1456.51 390.273 1446.26 382.617C1436.14 374.961 1430.4 364.297 1429.03 350.625H1410.16L1424.93 288.691C1424.93 311.113 1429.3 328.135 1438.05 339.756C1446.94 351.377 1459.93 357.188 1477.02 357.188C1494.52 357.188 1507.78 350.967 1516.8 338.525C1525.83 326.084 1530.34 307.695 1530.34 283.359C1530.34 257.656 1525.83 238.242 1516.8 225.117C1507.78 211.992 1494.52 205.43 1477.02 205.43C1459.93 205.43 1446.94 211.24 1438.05 222.861C1429.3 234.482 1424.93 251.504 1424.93 273.926L1410.16 211.992H1426.98C1428.89 198.32 1435.05 187.656 1445.44 180C1455.96 172.344 1469.71 168.516 1486.66 168.516C1515.23 168.516 1536.83 178.223 1551.46 197.637C1566.09 217.051 1573.41 245.625 1573.41 283.359C1573.41 319.727 1566.09 347.275 1551.46 366.006C1536.83 384.736 1515.23 394.102 1486.66 394.102ZM1800.14 394.102C1770.06 394.102 1746.68 384.258 1730 364.57C1713.32 344.883 1704.98 317.129 1704.98 281.309C1704.98 245.352 1713.32 217.598 1730 198.047C1746.68 178.359 1770.06 168.516 1800.14 168.516C1830.36 168.516 1853.73 178.359 1870.28 198.047C1886.96 217.598 1895.3 245.352 1895.3 281.309C1895.3 317.129 1886.96 344.883 1870.28 364.57C1853.73 384.258 1830.36 394.102 1800.14 394.102ZM1800.14 355.137C1816.14 355.137 1828.44 348.711 1837.05 335.859C1845.8 323.008 1850.18 304.824 1850.18 281.309C1850.18 257.656 1845.8 239.473 1837.05 226.758C1828.44 213.906 1816.14 207.48 1800.14 207.48C1784.14 207.48 1771.77 213.906 1763.02 226.758C1754.41 239.473 1750.1 257.656 1750.1 281.309C1750.1 304.824 1754.41 323.008 1763.02 335.859C1771.77 348.711 1784.14 355.137 1800.14 355.137ZM2169.61 394.102C2136.66 394.102 2112.8 387.266 2098.04 373.594C2083.41 359.922 2076.09 338.047 2076.09 307.969V271.055H2119.57V305.918C2119.57 323.145 2123.74 335.654 2132.08 343.447C2140.56 351.24 2154.43 355.137 2173.71 355.137C2180.55 355.137 2187.79 354.795 2195.45 354.111C2203.11 353.291 2211.86 352.266 2221.7 351.035L2226.62 389.18C2217.05 390.82 2207.69 392.051 2198.53 392.871C2189.5 393.691 2179.86 394.102 2169.61 394.102ZM2076.09 287.461V106.992H2119.57V287.461H2076.09ZM2021.54 210.762V172.617H2218.42V210.762H2021.54ZM2479.2 394.102C2442.14 394.102 2413.5 384.395 2393.27 364.98C2373.17 345.43 2363.12 317.402 2363.12 280.898C2363.12 245.352 2371.67 217.734 2388.76 198.047C2405.85 178.359 2429.98 168.516 2461.15 168.516C2490.54 168.516 2513.24 177.402 2529.23 195.176C2545.37 212.949 2553.43 238.789 2553.43 272.695C2553.43 282.676 2553.02 291.973 2552.2 300.586H2399.62V267.363H2514.06C2514.06 247.812 2509.41 232.842 2500.11 222.451C2490.82 211.924 2477.96 206.66 2461.56 206.66C2443.1 206.66 2428.75 212.949 2418.49 225.527C2408.38 238.105 2403.32 255.879 2403.32 278.848C2403.32 304.004 2410.29 323.145 2424.23 336.27C2438.32 349.395 2458.28 355.957 2484.12 355.957C2493.14 355.957 2502.03 355.479 2510.78 354.521C2519.53 353.428 2528.41 351.992 2537.44 350.215L2542.77 388.359C2529.92 390.82 2518.16 392.393 2507.5 393.076C2496.83 393.76 2487.4 394.102 2479.2 394.102ZM2835.54 390V248.496C2835.54 235.371 2832.12 225.254 2825.29 218.145C2818.45 211.035 2808.88 207.48 2796.57 207.48C2762.39 207.48 2745.3 227.578 2745.3 267.773L2732.59 211.992H2749.41C2750.64 197.363 2755.97 186.494 2765.4 179.385C2774.84 172.139 2788.64 168.516 2806.83 168.516C2829.8 168.516 2847.57 175.488 2860.15 189.434C2872.73 203.379 2879.02 223.066 2879.02 248.496V390H2835.54ZM2701.83 390V172.617H2741.2L2745.3 218.555V390H2701.83ZM3159.89 394.102C3126.94 394.102 3103.08 387.266 3088.32 373.594C3073.69 359.922 3066.38 338.047 3066.38 307.969V271.055H3109.85V305.918C3109.85 323.145 3114.02 335.654 3122.36 343.447C3130.84 351.24 3144.71 355.137 3163.99 355.137C3170.83 355.137 3178.07 354.795 3185.73 354.111C3193.39 353.291 3202.14 352.266 3211.98 351.035L3216.9 389.18C3207.33 390.82 3197.97 392.051 3188.81 392.871C3179.78 393.691 3170.14 394.102 3159.89 394.102ZM3066.38 287.461V106.992H3109.85V287.461H3066.38ZM3011.82 210.762V172.617H3208.7V210.762H3011.82ZM3443.23 390V184.922H3486.7V390H3443.23ZM3360.38 390V351.855H3447.33V390H3360.38ZM3482.6 390V351.855H3553.56V390H3482.6ZM3372.68 210.762V172.617H3486.7V210.762H3372.68ZM3463.53 138.164C3455.19 138.164 3448.01 135.225 3442 129.346C3436.12 123.33 3433.18 116.152 3433.18 107.812C3433.18 99.3359 3436.12 92.1582 3442 86.2793C3448.01 80.4004 3455.19 77.4609 3463.53 77.4609C3472.01 77.4609 3479.18 80.4004 3485.06 86.2793C3490.94 92.1582 3493.88 99.3359 3493.88 107.812C3493.88 116.152 3490.94 123.33 3485.06 129.346C3479.18 135.225 3472.01 138.164 3463.53 138.164ZM3825.41 392.051L3822.54 327.656L3816.8 309.609V253.418C3816.8 238.926 3811.67 228.33 3801.42 221.631C3791.3 214.795 3776.19 211.104 3756.09 210.557L3704 209.121L3708.11 170.566L3751.99 171.182C3787.95 171.729 3814.61 179.521 3831.97 194.561C3849.47 209.463 3858.22 231.27 3858.22 259.98V350.625L3895.14 355.137V390L3825.41 392.051ZM3748.71 394.102C3726.02 394.102 3708.45 388.633 3696.01 377.695C3683.56 366.758 3677.34 351.309 3677.34 331.348C3677.34 308.379 3685.89 290.742 3702.98 278.438C3720.21 266.133 3744.47 259.98 3775.78 259.98C3788.77 259.98 3800.32 260.801 3810.44 262.441C3820.69 263.945 3829.79 266.27 3837.71 269.414L3828.69 298.945C3819.53 296.895 3810.58 295.732 3801.83 295.459C3793.08 295.049 3784.12 294.844 3774.96 294.844C3737.23 294.844 3718.36 306.328 3718.36 329.297C3718.36 338.867 3721.57 346.25 3728 351.445C3734.56 356.641 3743.79 359.238 3755.68 359.238C3769.22 359.238 3780.5 356.914 3789.52 352.266C3798.68 347.617 3805.52 341.67 3810.03 334.424C3814.54 327.178 3816.8 319.727 3816.8 312.07V288.281L3829.51 344.062H3812.29L3819.26 337.5C3819.26 350.078 3816.32 360.605 3810.44 369.082C3804.7 377.422 3796.56 383.711 3786.04 387.949C3775.51 392.051 3763.07 394.102 3748.71 394.102ZM4143.2 394.102C4118.04 394.102 4099.86 387.266 4088.65 373.594C4077.44 359.922 4071.83 338.047 4071.83 307.969V82.3828H4115.31V305.918C4115.31 317.402 4116.4 326.768 4118.59 334.014C4120.78 341.26 4125.02 346.592 4131.3 350.01C4137.73 353.428 4147.16 355.137 4159.61 355.137C4170.95 355.137 4185.45 352.539 4203.08 347.344L4208 385.488C4196.93 388.496 4186.27 390.684 4176.01 392.051C4165.89 393.418 4154.96 394.102 4143.2 394.102ZM4007.85 120.527V82.3828H4075.52V120.527H4007.85Z" fill="url(#paint1_linear_784_24)"/>
</g>
</g>
<defs>
<linearGradient id="paint0_linear_784_24" x1="1237" y1="244" x2="-162.738" y2="244" gradientUnits="userSpaceOnUse">
<stop stop-color="#26C1B1"/>
<stop offset="1" stop-color="#198176"/>
</linearGradient>
<linearGradient id="paint1_linear_784_24" x1="-357.532" y1="244" x2="4234" y2="244" gradientUnits="userSpaceOnUse">
<stop stop-color="#D6D6D6"/>
<stop offset="1" stop-color="#999999"/>
</linearGradient>
<clipPath id="clip0_784_24">
<rect width="4274" height="488" rx="5" fill="white"/>
</clipPath>
<clipPath id="clip1_784_24">
<rect width="4274" height="488" rx="5" fill="white"/>
</clipPath>
</defs>
</svg>
