<svg xmlns="http://www.w3.org/2000/svg" xmlns:xlink="http://www.w3.org/1999/xlink" width="2000" zoomAndPan="magnify" viewBox="0 0 1500 1499.999933" height="2000" preserveAspectRatio="xMidYMid meet" version="1.0"><path fill="#737373" d="M 1331.296875 1241.042969 L 1005.320312 914.9375 C 1010.917969 907.453125 1016.277344 899.804688 1021.398438 891.988281 C 1026.519531 884.171875 1031.390625 876.203125 1036.015625 868.082031 C 1040.636719 859.960938 1045 851.703125 1049.109375 843.3125 C 1053.214844 834.917969 1057.054688 826.402344 1060.632812 817.769531 C 1064.207031 809.136719 1067.507812 800.398438 1070.535156 791.558594 C 1073.566406 782.71875 1076.316406 773.792969 1078.785156 764.78125 C 1081.257812 755.769531 1083.445312 746.6875 1085.347656 737.539062 C 1087.25 728.390625 1088.867188 719.191406 1090.195312 709.941406 C 1091.523438 700.691406 1092.5625 691.410156 1093.3125 682.097656 C 1094.0625 672.78125 1094.519531 663.453125 1094.683594 654.109375 C 1094.847656 644.765625 1094.722656 635.429688 1094.304688 626.09375 C 1093.886719 616.757812 1093.179688 607.445312 1092.179688 598.152344 C 1091.179688 588.863281 1089.890625 579.613281 1088.3125 570.402344 C 1086.734375 561.191406 1084.867188 552.039062 1082.71875 542.945312 C 1080.570312 533.851562 1078.136719 524.835938 1075.425781 515.890625 C 1072.710938 506.949219 1069.71875 498.101562 1066.453125 489.347656 C 1063.1875 480.589844 1059.652344 471.945312 1055.84375 463.414062 C 1052.039062 454.878906 1047.96875 446.472656 1043.636719 438.191406 C 1039.304688 429.914062 1034.71875 421.777344 1029.878906 413.785156 C 1025.035156 405.789062 1019.949219 397.957031 1014.621094 390.28125 C 1009.289062 382.605469 1003.726562 375.105469 997.925781 367.777344 C 992.128906 360.449219 986.105469 353.308594 979.863281 346.359375 C 973.617188 339.40625 967.160156 332.65625 960.492188 326.109375 C 953.828125 319.5625 946.960938 313.226562 939.898438 307.109375 C 932.835938 300.992188 925.589844 295.097656 918.160156 289.433594 C 910.730469 283.765625 903.128906 278.335938 895.359375 273.148438 C 887.589844 267.957031 879.664062 263.011719 871.585938 258.316406 C 863.503906 253.621094 855.289062 249.183594 846.933594 245 C 838.574219 240.816406 830.097656 236.898438 821.496094 233.246094 C 812.894531 229.59375 804.1875 226.214844 795.375 223.105469 C 786.5625 220 777.660156 217.167969 768.671875 214.617188 C 759.683594 212.0625 750.621094 209.796875 741.492188 207.808594 C 732.359375 205.824219 723.175781 204.125 713.9375 202.710938 C 704.703125 201.300781 695.429688 200.179688 686.121094 199.347656 C 676.816406 198.515625 667.492188 197.972656 658.148438 197.722656 C 648.808594 197.472656 639.46875 197.515625 630.128906 197.847656 C 620.789062 198.183594 611.472656 198.808594 602.171875 199.722656 C 592.871094 200.640625 583.609375 201.847656 574.386719 203.339844 C 565.164062 204.835938 555.996094 206.617188 546.882812 208.6875 C 537.769531 210.753906 528.730469 213.105469 519.761719 215.738281 C 510.796875 218.371094 501.921875 221.28125 493.136719 224.46875 C 484.355469 227.65625 475.679688 231.113281 467.109375 234.84375 C 458.542969 238.574219 450.097656 242.566406 441.78125 246.824219 C 433.460938 251.082031 425.285156 255.59375 417.25 260.363281 C 409.210938 265.132812 401.332031 270.144531 393.609375 275.40625 C 385.886719 280.667969 378.335938 286.164062 370.957031 291.894531 C 363.574219 297.628906 356.382812 303.585938 349.375 309.769531 C 342.367188 315.949219 335.5625 322.347656 328.953125 328.953125 C 322.34375 335.5625 315.949219 342.367188 309.769531 349.375 C 303.585938 356.382812 297.628906 363.574219 291.894531 370.957031 C 286.164062 378.335938 280.667969 385.886719 275.40625 393.609375 C 270.144531 401.332031 265.128906 409.210938 260.363281 417.25 C 255.59375 425.285156 251.082031 433.460938 246.824219 441.78125 C 242.566406 450.097656 238.574219 458.542969 234.84375 467.109375 C 231.113281 475.679688 227.65625 484.355469 224.46875 493.136719 C 221.28125 501.921875 218.371094 510.796875 215.738281 519.761719 C 213.105469 528.730469 210.753906 537.769531 208.6875 546.882812 C 206.617188 555.996094 204.835938 565.164062 203.339844 574.386719 C 201.847656 583.609375 200.640625 592.875 199.722656 602.171875 C 198.808594 611.472656 198.183594 620.792969 197.847656 630.128906 C 197.515625 639.46875 197.472656 648.808594 197.722656 658.148438 C 197.972656 667.492188 198.515625 676.816406 199.347656 686.121094 C 200.179688 695.429688 201.300781 704.703125 202.710938 713.9375 C 204.125 723.175781 205.824219 732.359375 207.808594 741.492188 C 209.796875 750.621094 212.0625 759.683594 214.617188 768.671875 C 217.167969 777.660156 220 786.5625 223.105469 795.375 C 226.214844 804.1875 229.59375 812.894531 233.246094 821.496094 C 236.898438 830.097656 240.816406 838.574219 245 846.933594 C 249.183594 855.289062 253.621094 863.507812 258.316406 871.585938 C 263.011719 879.664062 267.957031 887.589844 273.148438 895.359375 C 278.339844 903.128906 283.765625 910.730469 289.433594 918.160156 C 295.097656 925.589844 300.992188 932.835938 307.109375 939.898438 C 313.230469 946.960938 319.5625 953.828125 326.109375 960.496094 C 332.65625 967.160156 339.40625 973.617188 346.359375 979.863281 C 353.308594 986.105469 360.449219 992.128906 367.777344 997.929688 C 375.105469 1003.726562 382.605469 1009.292969 390.28125 1014.621094 C 397.957031 1019.953125 405.789062 1025.035156 413.785156 1029.878906 C 421.777344 1034.71875 429.914062 1039.304688 438.191406 1043.636719 C 446.472656 1047.96875 454.878906 1052.039062 463.414062 1055.84375 C 471.949219 1059.652344 480.59375 1063.1875 489.347656 1066.453125 C 498.101562 1069.71875 506.949219 1072.710938 515.890625 1075.425781 C 524.835938 1078.136719 533.851562 1080.570312 542.945312 1082.71875 C 552.039062 1084.871094 561.191406 1086.734375 570.402344 1088.3125 C 579.613281 1089.890625 588.863281 1091.179688 598.152344 1092.179688 C 607.445312 1093.179688 616.757812 1093.886719 626.09375 1094.304688 C 635.429688 1094.722656 644.765625 1094.847656 654.109375 1094.683594 C 663.453125 1094.519531 672.78125 1094.0625 682.097656 1093.3125 C 691.410156 1092.5625 700.695312 1091.523438 709.941406 1090.195312 C 719.191406 1088.867188 728.390625 1087.25 737.539062 1085.347656 C 746.6875 1083.445312 755.769531 1081.257812 764.78125 1078.785156 C 773.792969 1076.316406 782.71875 1073.566406 791.558594 1070.535156 C 800.398438 1067.507812 809.136719 1064.207031 817.769531 1060.632812 C 826.402344 1057.054688 834.917969 1053.214844 843.3125 1049.109375 C 851.703125 1045 859.960938 1040.636719 868.082031 1036.015625 C 876.203125 1031.390625 884.171875 1026.519531 891.988281 1021.398438 C 899.804688 1016.277344 907.453125 1010.917969 914.9375 1005.320312 L 1241.042969 1331.425781 C 1242.53125 1332.863281 1244.082031 1334.222656 1245.703125 1335.507812 C 1247.320312 1336.792969 1249 1337.996094 1250.734375 1339.117188 C 1252.472656 1340.242188 1254.257812 1341.277344 1256.09375 1342.226562 C 1257.929688 1343.171875 1259.808594 1344.03125 1261.730469 1344.796875 C 1263.648438 1345.5625 1265.601562 1346.234375 1267.589844 1346.8125 C 1269.574219 1347.386719 1271.582031 1347.867188 1273.613281 1348.246094 C 1275.644531 1348.628906 1277.691406 1348.910156 1279.75 1349.09375 C 1281.808594 1349.277344 1283.871094 1349.359375 1285.941406 1349.339844 C 1288.007812 1349.320312 1290.070312 1349.203125 1292.125 1348.984375 C 1294.179688 1348.765625 1296.222656 1348.449219 1298.246094 1348.035156 C 1300.269531 1347.617188 1302.269531 1347.101562 1304.246094 1346.492188 C 1306.21875 1345.882812 1308.160156 1345.175781 1310.066406 1344.375 C 1311.972656 1343.578125 1313.835938 1342.6875 1315.65625 1341.707031 C 1317.476562 1340.726562 1319.246094 1339.660156 1320.960938 1338.507812 C 1322.679688 1337.355469 1324.335938 1336.121094 1325.933594 1334.808594 C 1327.527344 1333.496094 1329.058594 1332.109375 1330.519531 1330.648438 C 1331.980469 1329.183594 1333.367188 1327.65625 1334.683594 1326.058594 C 1335.996094 1324.460938 1337.226562 1322.804688 1338.378906 1321.089844 C 1339.53125 1319.375 1340.597656 1317.605469 1341.578125 1315.785156 C 1342.558594 1313.964844 1343.449219 1312.101562 1344.25 1310.195312 C 1345.046875 1308.289062 1345.753906 1306.347656 1346.363281 1304.371094 C 1346.976562 1302.398438 1347.488281 1300.398438 1347.90625 1298.375 C 1348.324219 1296.347656 1348.640625 1294.308594 1348.859375 1292.253906 C 1349.078125 1290.195312 1349.195312 1288.132812 1349.210938 1286.066406 C 1349.230469 1284 1349.148438 1281.9375 1348.964844 1279.878906 C 1348.785156 1277.820312 1348.5 1275.773438 1348.121094 1273.742188 C 1347.738281 1271.710938 1347.261719 1269.699219 1346.683594 1267.714844 C 1346.105469 1265.730469 1345.4375 1263.777344 1344.667969 1261.855469 C 1343.902344 1259.9375 1343.046875 1258.058594 1342.097656 1256.222656 C 1341.148438 1254.386719 1340.113281 1252.597656 1338.992188 1250.863281 C 1337.867188 1249.125 1336.664062 1247.449219 1335.378906 1245.828125 C 1334.09375 1244.210938 1332.734375 1242.65625 1331.296875 1241.171875 Z M 328.722656 647.871094 C 328.722656 642.648438 328.851562 637.429688 329.109375 632.210938 C 329.363281 626.996094 329.75 621.789062 330.261719 616.589844 C 330.773438 611.390625 331.410156 606.210938 332.175781 601.042969 C 332.945312 595.875 333.835938 590.730469 334.855469 585.609375 C 335.875 580.488281 337.019531 575.390625 338.289062 570.324219 C 339.558594 565.257812 340.949219 560.226562 342.464844 555.226562 C 343.980469 550.230469 345.621094 545.273438 347.378906 540.355469 C 349.140625 535.4375 351.019531 530.566406 353.015625 525.738281 C 355.015625 520.914062 357.132812 516.140625 359.363281 511.417969 C 361.597656 506.695312 363.945312 502.03125 366.40625 497.425781 C 368.871094 492.820312 371.445312 488.277344 374.128906 483.796875 C 376.8125 479.316406 379.609375 474.90625 382.507812 470.5625 C 385.410156 466.21875 388.417969 461.949219 391.53125 457.753906 C 394.640625 453.558594 397.851562 449.445312 401.167969 445.40625 C 404.480469 441.367188 407.890625 437.414062 411.398438 433.546875 C 414.90625 429.675781 418.507812 425.894531 422.199219 422.199219 C 425.894531 418.507812 429.675781 414.90625 433.546875 411.398438 C 437.414062 407.890625 441.367188 404.480469 445.40625 401.167969 C 449.445312 397.851562 453.558594 394.640625 457.753906 391.53125 C 461.949219 388.417969 466.21875 385.410156 470.5625 382.507812 C 474.90625 379.609375 479.316406 376.8125 483.796875 374.128906 C 488.277344 371.445312 492.820312 368.871094 497.425781 366.40625 C 502.03125 363.945312 506.695312 361.597656 511.417969 359.363281 C 516.140625 357.132812 520.914062 355.015625 525.738281 353.015625 C 530.566406 351.019531 535.4375 349.140625 540.355469 347.378906 C 545.273438 345.621094 550.230469 343.980469 555.226562 342.464844 C 560.226562 340.949219 565.257812 339.558594 570.324219 338.289062 C 575.390625 337.019531 580.488281 335.875 585.609375 334.855469 C 590.730469 333.835938 595.875 332.945312 601.042969 332.175781 C 606.210938 331.410156 611.390625 330.773438 616.589844 330.261719 C 621.789062 329.75 626.996094 329.363281 632.210938 329.109375 C 637.429688 328.851562 642.648438 328.722656 647.871094 328.722656 C 653.09375 328.722656 658.316406 328.851562 663.53125 329.109375 C 668.75 329.363281 673.957031 329.75 679.15625 330.261719 C 684.351562 330.773438 689.535156 331.410156 694.699219 332.175781 C 699.867188 332.945312 705.011719 333.835938 710.136719 334.855469 C 715.257812 335.875 720.351562 337.019531 725.417969 338.289062 C 730.484375 339.558594 735.519531 340.949219 740.515625 342.464844 C 745.515625 343.980469 750.472656 345.621094 755.390625 347.378906 C 760.308594 349.140625 765.179688 351.019531 770.003906 353.015625 C 774.832031 355.015625 779.605469 357.132812 784.324219 359.363281 C 789.046875 361.597656 793.710938 363.945312 798.316406 366.40625 C 802.925781 368.871094 807.46875 371.445312 811.949219 374.128906 C 816.425781 376.8125 820.839844 379.609375 825.183594 382.507812 C 829.523438 385.410156 833.792969 388.417969 837.988281 391.53125 C 842.183594 394.640625 846.300781 397.851562 850.339844 401.167969 C 854.375 404.480469 858.328125 407.890625 862.199219 411.398438 C 866.070312 414.90625 869.851562 418.507812 873.542969 422.199219 C 877.238281 425.894531 880.839844 429.675781 884.347656 433.546875 C 887.855469 437.414062 891.265625 441.367188 894.578125 445.40625 C 897.890625 449.445312 901.105469 453.558594 904.214844 457.753906 C 907.328125 461.949219 910.332031 466.21875 913.234375 470.5625 C 916.136719 474.90625 918.929688 479.316406 921.617188 483.796875 C 924.300781 488.277344 926.875 492.820312 929.335938 497.425781 C 931.796875 502.03125 934.144531 506.695312 936.378906 511.417969 C 938.613281 516.140625 940.730469 520.914062 942.726562 525.738281 C 944.726562 530.566406 946.605469 535.4375 948.363281 540.355469 C 950.125 545.273438 951.761719 550.230469 953.277344 555.226562 C 954.792969 560.226562 956.1875 565.257812 957.457031 570.324219 C 958.726562 575.390625 959.871094 580.488281 960.890625 585.609375 C 961.90625 590.730469 962.800781 595.875 963.566406 601.042969 C 964.332031 606.210938 964.972656 611.390625 965.484375 616.589844 C 965.996094 621.789062 966.378906 626.996094 966.636719 632.210938 C 966.894531 637.429688 967.019531 642.648438 967.019531 647.871094 C 967.019531 653.09375 966.894531 658.316406 966.636719 663.53125 C 966.378906 668.75 965.996094 673.957031 965.484375 679.15625 C 964.972656 684.351562 964.332031 689.535156 963.566406 694.699219 C 962.800781 699.867188 961.90625 705.011719 960.890625 710.136719 C 959.871094 715.257812 958.726562 720.351562 957.457031 725.417969 C 956.1875 730.484375 954.792969 735.519531 953.277344 740.515625 C 951.761719 745.515625 950.125 750.472656 948.363281 755.390625 C 946.605469 760.308594 944.726562 765.179688 942.726562 770.003906 C 940.730469 774.832031 938.613281 779.605469 936.378906 784.324219 C 934.144531 789.046875 931.796875 793.710938 929.335938 798.316406 C 926.875 802.925781 924.300781 807.46875 921.617188 811.949219 C 918.929688 816.425781 916.136719 820.839844 913.234375 825.183594 C 910.332031 829.523438 907.328125 833.792969 904.214844 837.988281 C 901.105469 842.183594 897.890625 846.300781 894.578125 850.339844 C 891.265625 854.375 887.855469 858.328125 884.347656 862.199219 C 880.839844 866.070312 877.238281 869.851562 873.542969 873.542969 C 869.851562 877.238281 866.070312 880.839844 862.199219 884.347656 C 858.328125 887.855469 854.375 891.265625 850.339844 894.578125 C 846.300781 897.890625 842.183594 901.101562 837.988281 904.214844 C 833.792969 907.328125 829.523438 910.332031 825.183594 913.234375 C 820.839844 916.136719 816.425781 918.929688 811.949219 921.617188 C 807.46875 924.300781 802.925781 926.875 798.316406 929.335938 C 793.710938 931.796875 789.046875 934.144531 784.324219 936.378906 C 779.605469 938.613281 774.832031 940.726562 770.003906 942.726562 C 765.179688 944.726562 760.308594 946.605469 755.390625 948.363281 C 750.472656 950.125 745.515625 951.761719 740.515625 953.277344 C 735.519531 954.792969 730.484375 956.1875 725.417969 957.457031 C 720.351562 958.726562 715.257812 959.871094 710.136719 960.890625 C 705.011719 961.90625 699.867188 962.800781 694.699219 963.566406 C 689.535156 964.332031 684.351562 964.972656 679.15625 965.484375 C 673.957031 965.996094 668.75 966.378906 663.53125 966.636719 C 658.316406 966.894531 653.09375 967.019531 647.871094 967.019531 C 642.652344 967.015625 637.433594 966.882812 632.21875 966.617188 C 627.003906 966.355469 621.796875 965.96875 616.601562 965.449219 C 611.40625 964.933594 606.226562 964.289062 601.0625 963.515625 C 595.898438 962.746094 590.757812 961.847656 585.636719 960.824219 C 580.515625 959.800781 575.425781 958.65625 570.359375 957.382812 C 565.296875 956.109375 560.265625 954.710938 555.269531 953.191406 C 550.277344 951.671875 545.320312 950.03125 540.40625 948.269531 C 535.492188 946.507812 530.621094 944.625 525.796875 942.625 C 520.976562 940.625 516.207031 938.507812 511.484375 936.269531 C 506.765625 934.035156 502.105469 931.6875 497.503906 929.222656 C 492.898438 926.761719 488.359375 924.1875 483.878906 921.5 C 479.402344 918.8125 474.992188 916.019531 470.652344 913.117188 C 466.3125 910.214844 462.046875 907.207031 457.851562 904.097656 C 453.660156 900.984375 449.542969 897.773438 445.507812 894.460938 C 441.472656 891.148438 437.519531 887.738281 433.652344 884.230469 C 429.785156 880.722656 426.003906 877.125 422.3125 873.433594 C 418.621094 869.742188 415.019531 865.960938 411.511719 862.089844 C 408.007812 858.222656 404.597656 854.269531 401.285156 850.234375 C 397.972656 846.199219 394.757812 842.085938 391.648438 837.890625 C 388.535156 833.699219 385.53125 829.433594 382.628906 825.089844 C 379.726562 820.75 376.929688 816.34375 374.246094 811.863281 C 371.558594 807.386719 368.984375 802.847656 366.519531 798.242188 C 364.058594 793.636719 361.707031 788.976562 359.472656 784.257812 C 357.238281 779.539062 355.121094 774.769531 353.121094 769.945312 C 351.117188 765.125 349.238281 760.253906 347.472656 755.339844 C 345.710938 750.425781 344.070312 745.46875 342.550781 740.472656 C 341.03125 735.476562 339.636719 730.449219 338.363281 725.386719 C 337.089844 720.320312 335.941406 715.230469 334.917969 710.109375 C 333.894531 704.988281 333 699.847656 332.226562 694.683594 C 331.457031 689.519531 330.8125 684.339844 330.292969 679.140625 C 329.777344 673.945312 329.386719 668.742188 329.125 663.527344 C 328.863281 658.3125 328.730469 653.09375 328.722656 647.871094 Z M 328.722656 647.871094 " fill-opacity="1" fill-rule="nonzero"/></svg>