<svg xmlns="http://www.w3.org/2000/svg" xmlns:xlink="http://www.w3.org/1999/xlink" width="500" zoomAndPan="magnify" viewBox="0 0 375 374.999991" height="500" preserveAspectRatio="xMidYMid meet" version="1.0"><defs><clipPath id="ecd6c02f8f"><path d="M 39 58.59375 L 336 58.59375 L 336 316.40625 L 39 316.40625 Z M 39 58.59375 " clip-rule="nonzero"/></clipPath><clipPath id="6209b2596c"><path d="M 333.726562 193.984375 L 266.273438 309.921875 C 263.9375 313.9375 259.644531 316.40625 255 316.40625 L 120 316.40625 C 115.355469 316.40625 111.0625 313.9375 108.726562 309.921875 L 41.273438 193.984375 C 38.941406 189.976562 38.941406 185.023438 41.273438 181.015625 L 108.726562 65.078125 C 111.0625 61.0625 115.355469 58.59375 120 58.59375 L 255 58.59375 C 259.644531 58.59375 263.9375 61.0625 266.273438 65.078125 L 333.726562 181.015625 C 336.058594 185.023438 336.058594 189.976562 333.726562 193.984375 Z M 333.726562 193.984375 " clip-rule="nonzero"/></clipPath><clipPath id="ec60c7a835"><path d="M 131.25 131.25 L 243.75 131.25 L 243.75 243.75 L 131.25 243.75 Z M 131.25 131.25 " clip-rule="nonzero"/></clipPath><clipPath id="a126237df8"><path d="M 187.5 131.25 C 156.433594 131.25 131.25 156.433594 131.25 187.5 C 131.25 218.566406 156.433594 243.75 187.5 243.75 C 218.566406 243.75 243.75 218.566406 243.75 187.5 C 243.75 156.433594 218.566406 131.25 187.5 131.25 Z M 187.5 131.25 " clip-rule="nonzero"/></clipPath></defs><g clip-path="url(#ecd6c02f8f)"><g clip-path="url(#6209b2596c)"><path stroke-linecap="butt" transform="matrix(0.75, 0, 0, 0.75, 37.500002, 58.593747)" fill="none" stroke-linejoin="miter" d="M 394.968773 180.520849 L 305.031267 335.104192 C 301.916684 340.458359 296.192725 343.750026 290.000016 343.750026 L 110.000005 343.750026 C 103.807296 343.750026 98.083337 340.458359 94.968754 335.104192 L 5.031248 180.520849 C 1.921872 175.177098 1.921872 168.572931 5.031248 163.229181 L 94.968754 8.645837 C 98.083337 3.29167 103.807296 0.00000353021 110.000005 0.00000353021 L 290.000016 0.00000353021 C 296.192725 0.00000353021 301.916684 3.29167 305.031267 8.645837 L 394.968773 163.229181 C 398.078148 168.572931 398.078148 175.177098 394.968773 180.520849 Z M 394.968773 180.520849 " stroke="#d6d6d6" stroke-width="80" stroke-opacity="1" stroke-miterlimit="4"/></g></g><g clip-path="url(#ec60c7a835)"><g clip-path="url(#a126237df8)"><path stroke-linecap="butt" transform="matrix(0.75, 0, 0, 0.75, 131.249996, 131.249991)" fill="none" stroke-linejoin="miter" d="M 75.00001 0.0000114917 C 33.578133 0.0000114917 0.00000549167 33.578139 0.00000549167 75.000016 C 0.00000549167 116.421894 33.578133 150.000021 75.00001 150.000021 C 116.421888 150.000021 150.000015 116.421894 150.000015 75.000016 C 150.000015 33.578139 116.421888 0.0000114917 75.00001 0.0000114917 Z M 75.00001 0.0000114917 " stroke="#d6d6d6" stroke-width="80" stroke-opacity="1" stroke-miterlimit="4"/></g></g></svg>