<svg xmlns="http://www.w3.org/2000/svg" xmlns:xlink="http://www.w3.org/1999/xlink" width="2000" zoomAndPan="magnify" viewBox="0 0 1500 1499.999933" height="2000" preserveAspectRatio="xMidYMid meet" version="1.0"><defs><clipPath id="44424b4aa8"><path d="M 205 150 L 647.160156 150 L 647.160156 395.25 L 205 395.25 Z M 205 150 " clip-rule="nonzero"/></clipPath><clipPath id="83e546767c"><path d="M 205 1130.742188 L 663.570312 1130.742188 L 663.570312 1349.742188 L 205 1349.742188 Z M 205 1130.742188 " clip-rule="nonzero"/></clipPath><clipPath id="ead441525e"><path d="M 205 150 L 328.777344 150 L 328.777344 1350 L 205 1350 Z M 205 150 " clip-rule="nonzero"/></clipPath><clipPath id="068fb6ce16"><path d="M 514.765625 477.921875 L 1297.765625 477.921875 L 1297.765625 1022.421875 L 514.765625 1022.421875 Z M 514.765625 477.921875 " clip-rule="nonzero"/></clipPath><clipPath id="9641a3e99a"><path d="M 0.882812 0.921875 L 781 0.921875 L 781 545.421875 L 0.882812 545.421875 Z M 0.882812 0.921875 " clip-rule="nonzero"/></clipPath><clipPath id="3e1e2689ed"><rect x="0" width="784" y="0" height="546"/></clipPath></defs><g clip-path="url(#44424b4aa8)"><path fill="#999999" d="M 574.855469 1350 L 373.558594 1350 C 370.8125 1349.996094 368.074219 1349.925781 365.332031 1349.789062 C 362.59375 1349.648438 359.859375 1349.445312 357.128906 1349.175781 C 354.398438 1348.902344 351.679688 1348.566406 348.964844 1348.160156 C 346.25 1347.753906 343.550781 1347.285156 340.859375 1346.746094 C 338.171875 1346.207031 335.496094 1345.605469 332.835938 1344.9375 C 330.175781 1344.269531 327.53125 1343.535156 324.90625 1342.738281 C 322.28125 1341.9375 319.679688 1341.078125 317.097656 1340.152344 C 314.515625 1339.226562 311.957031 1338.238281 309.421875 1337.1875 C 306.890625 1336.132812 304.382812 1335.023438 301.902344 1333.847656 C 299.425781 1332.671875 296.976562 1331.4375 294.558594 1330.144531 C 292.140625 1328.851562 289.753906 1327.5 287.402344 1326.085938 C 285.046875 1324.675781 282.730469 1323.207031 280.453125 1321.683594 C 278.171875 1320.160156 275.929688 1318.578125 273.726562 1316.945312 C 271.523438 1315.308594 269.363281 1313.621094 267.242188 1311.882812 C 265.121094 1310.140625 263.046875 1308.351562 261.011719 1306.507812 C 258.980469 1304.664062 256.996094 1302.773438 255.054688 1300.835938 C 253.117188 1298.894531 251.226562 1296.910156 249.382812 1294.875 C 247.539062 1292.84375 245.75 1290.765625 244.007812 1288.648438 C 242.269531 1286.527344 240.582031 1284.363281 238.945312 1282.160156 C 237.3125 1279.960938 235.730469 1277.71875 234.207031 1275.4375 C 232.683594 1273.15625 231.214844 1270.839844 229.804688 1268.488281 C 228.394531 1266.136719 227.042969 1263.75 225.746094 1261.332031 C 224.453125 1258.910156 223.21875 1256.464844 222.046875 1253.984375 C 220.871094 1251.503906 219.757812 1249 218.707031 1246.464844 C 217.65625 1243.929688 216.667969 1241.371094 215.742188 1238.789062 C 214.816406 1236.207031 213.957031 1233.605469 213.15625 1230.980469 C 212.359375 1228.355469 211.625 1225.714844 210.957031 1223.050781 C 210.289062 1220.390625 209.6875 1217.71875 209.148438 1215.027344 C 208.613281 1212.335938 208.140625 1209.636719 207.734375 1206.921875 C 207.332031 1204.210938 206.992188 1201.488281 206.722656 1198.757812 C 206.449219 1196.027344 206.246094 1193.292969 206.109375 1190.554688 C 205.972656 1187.816406 205.902344 1185.074219 205.898438 1182.328125 L 205.898438 317.667969 C 205.902344 314.925781 205.972656 312.183594 206.109375 309.441406 C 206.246094 306.703125 206.449219 303.96875 206.722656 301.238281 C 206.992188 298.507812 207.332031 295.789062 207.734375 293.074219 C 208.140625 290.363281 208.613281 287.660156 209.148438 284.96875 C 209.6875 282.28125 210.289062 279.605469 210.957031 276.945312 C 211.625 274.285156 212.359375 271.640625 213.15625 269.015625 C 213.957031 266.394531 214.816406 263.789062 215.742188 261.207031 C 216.667969 258.625 217.65625 256.066406 218.707031 253.53125 C 219.757812 251 220.871094 248.492188 222.046875 246.011719 C 223.21875 243.535156 224.453125 241.085938 225.746094 238.667969 C 227.039062 236.246094 228.394531 233.863281 229.804688 231.511719 C 231.214844 229.15625 232.683594 226.839844 234.207031 224.558594 C 235.730469 222.28125 237.3125 220.039062 238.945312 217.835938 C 240.582031 215.632812 242.269531 213.46875 244.007812 211.351562 C 245.75 209.230469 247.539062 207.152344 249.382812 205.121094 C 251.226562 203.089844 253.117188 201.101562 255.054688 199.164062 C 256.996094 197.222656 258.980469 195.332031 261.011719 193.488281 C 263.046875 191.648438 265.121094 189.855469 267.242188 188.117188 C 269.363281 186.375 271.523438 184.6875 273.726562 183.050781 C 275.929688 181.417969 278.171875 179.839844 280.453125 178.3125 C 282.730469 176.789062 285.046875 175.320312 287.402344 173.910156 C 289.753906 172.5 292.140625 171.144531 294.558594 169.851562 C 296.976562 168.558594 299.425781 167.324219 301.902344 166.148438 C 304.382812 164.976562 306.890625 163.863281 309.421875 162.8125 C 311.957031 161.761719 314.515625 160.773438 317.097656 159.847656 C 319.679688 158.921875 322.28125 158.058594 324.90625 157.261719 C 327.53125 156.460938 330.175781 155.730469 332.835938 155.058594 C 335.496094 154.390625 338.171875 153.789062 340.859375 153.25 C 343.550781 152.714844 346.25 152.242188 348.964844 151.835938 C 351.679688 151.433594 354.398438 151.09375 357.128906 150.824219 C 359.859375 150.550781 362.59375 150.347656 365.332031 150.210938 C 368.074219 150.070312 370.8125 150 373.558594 150 L 574.855469 150 C 576.550781 150 578.242188 150.082031 579.925781 150.246094 C 581.613281 150.410156 583.289062 150.660156 584.949219 150.988281 C 586.613281 151.320312 588.253906 151.730469 589.875 152.222656 C 591.496094 152.714844 593.089844 153.28125 594.65625 153.929688 C 596.222656 154.578125 597.75 155.300781 599.246094 156.101562 C 600.742188 156.898438 602.191406 157.769531 603.601562 158.710938 C 605.011719 159.652344 606.371094 160.660156 607.679688 161.734375 C 608.988281 162.808594 610.242188 163.945312 611.441406 165.140625 C 612.640625 166.339844 613.777344 167.59375 614.851562 168.902344 C 615.925781 170.214844 616.9375 171.570312 617.878906 172.980469 C 618.820312 174.390625 619.6875 175.839844 620.488281 177.335938 C 621.285156 178.828125 622.011719 180.359375 622.660156 181.925781 C 623.308594 183.488281 623.878906 185.082031 624.371094 186.703125 C 624.863281 188.328125 625.273438 189.96875 625.605469 191.628906 C 625.933594 193.292969 626.183594 194.964844 626.347656 196.652344 C 626.515625 198.339844 626.597656 200.027344 626.597656 201.722656 C 626.597656 203.417969 626.515625 205.105469 626.347656 206.792969 C 626.183594 208.480469 625.933594 210.152344 625.605469 211.816406 C 625.273438 213.476562 624.863281 215.117188 624.371094 216.742188 C 623.878906 218.363281 623.308594 219.957031 622.660156 221.519531 C 622.011719 223.085938 621.285156 224.617188 620.488281 226.109375 C 619.6875 227.605469 618.820312 229.054688 617.878906 230.464844 C 616.9375 231.875 615.925781 233.230469 614.851562 234.542969 C 613.777344 235.851562 612.640625 237.105469 611.441406 238.304688 C 610.242188 239.5 608.988281 240.636719 607.679688 241.710938 C 606.371094 242.785156 605.011719 243.792969 603.601562 244.734375 C 602.191406 245.675781 600.742188 246.546875 599.246094 247.34375 C 597.75 248.144531 596.222656 248.867188 594.65625 249.515625 C 593.089844 250.164062 591.496094 250.730469 589.875 251.222656 C 588.253906 251.714844 586.613281 252.125 584.949219 252.457031 C 583.289062 252.785156 581.613281 253.035156 579.925781 253.199219 C 578.242188 253.363281 576.550781 253.445312 574.855469 253.445312 L 382.609375 253.445312 C 381.410156 253.449219 380.210938 253.480469 379.015625 253.539062 C 377.816406 253.601562 376.621094 253.6875 375.429688 253.808594 C 374.238281 253.925781 373.046875 254.074219 371.863281 254.253906 C 370.675781 254.429688 369.496094 254.636719 368.320312 254.871094 C 367.144531 255.105469 365.976562 255.371094 364.8125 255.660156 C 363.652344 255.953125 362.496094 256.273438 361.351562 256.625 C 360.203125 256.972656 359.066406 257.347656 357.9375 257.753906 C 356.808594 258.160156 355.691406 258.589844 354.585938 259.050781 C 353.476562 259.507812 352.382812 259.996094 351.300781 260.507812 C 350.214844 261.023438 349.144531 261.5625 348.089844 262.128906 C 347.03125 262.691406 345.988281 263.285156 344.960938 263.902344 C 343.933594 264.519531 342.921875 265.160156 341.925781 265.824219 C 340.929688 266.492188 339.949219 267.183594 338.988281 267.898438 C 338.023438 268.609375 337.078125 269.347656 336.152344 270.109375 C 335.226562 270.871094 334.320312 271.652344 333.433594 272.457031 C 332.542969 273.261719 331.675781 274.089844 330.828125 274.9375 C 329.980469 275.785156 329.15625 276.652344 328.351562 277.539062 C 327.546875 278.429688 326.761719 279.335938 326 280.261719 C 325.242188 281.1875 324.503906 282.132812 323.789062 283.097656 C 323.074219 284.058594 322.386719 285.039062 321.71875 286.035156 C 321.054688 287.03125 320.410156 288.042969 319.796875 289.070312 C 319.179688 290.101562 318.585938 291.140625 318.023438 292.199219 C 317.457031 293.257812 316.917969 294.324219 316.40625 295.410156 C 315.890625 296.492188 315.40625 297.589844 314.945312 298.695312 C 314.488281 299.800781 314.054688 300.921875 313.648438 302.046875 C 313.246094 303.175781 312.871094 304.3125 312.519531 305.460938 C 312.171875 306.609375 311.851562 307.761719 311.558594 308.925781 C 311.265625 310.085938 311.003906 311.257812 310.769531 312.433594 C 310.535156 313.609375 310.328125 314.789062 310.152344 315.972656 C 309.972656 317.160156 309.828125 318.347656 309.707031 319.542969 C 309.589844 320.734375 309.5 321.929688 309.4375 323.125 C 309.378906 324.324219 309.347656 325.519531 309.347656 326.71875 L 309.347656 1173.277344 C 309.347656 1174.476562 309.378906 1175.675781 309.4375 1176.871094 C 309.5 1178.070312 309.589844 1179.261719 309.707031 1180.457031 C 309.828125 1181.648438 309.972656 1182.839844 310.152344 1184.023438 C 310.328125 1185.210938 310.535156 1186.390625 310.769531 1187.566406 C 311.003906 1188.742188 311.265625 1189.910156 311.558594 1191.070312 C 311.851562 1192.234375 312.171875 1193.390625 312.519531 1194.535156 C 312.871094 1195.683594 313.246094 1196.820312 313.648438 1197.949219 C 314.054688 1199.078125 314.488281 1200.195312 314.945312 1201.300781 C 315.40625 1202.410156 315.890625 1203.503906 316.40625 1204.589844 C 316.917969 1205.671875 317.457031 1206.742188 318.023438 1207.796875 C 318.585938 1208.855469 319.179688 1209.898438 319.796875 1210.925781 C 320.410156 1211.953125 321.054688 1212.964844 321.71875 1213.960938 C 322.386719 1214.957031 323.074219 1215.9375 323.789062 1216.902344 C 324.503906 1217.863281 325.242188 1218.808594 326 1219.734375 C 326.761719 1220.660156 327.546875 1221.570312 328.351562 1222.457031 C 329.15625 1223.34375 329.980469 1224.214844 330.828125 1225.0625 C 331.675781 1225.910156 332.542969 1226.734375 333.433594 1227.539062 C 334.320312 1228.34375 335.226562 1229.128906 336.152344 1229.886719 C 337.078125 1230.648438 338.023438 1231.386719 338.988281 1232.101562 C 339.949219 1232.816406 340.929688 1233.503906 341.925781 1234.171875 C 342.921875 1234.839844 343.933594 1235.480469 344.960938 1236.097656 C 345.988281 1236.714844 347.03125 1237.304688 348.089844 1237.871094 C 349.144531 1238.4375 350.214844 1238.976562 351.300781 1239.488281 C 352.382812 1240 353.476562 1240.488281 354.585938 1240.949219 C 355.691406 1241.40625 356.808594 1241.839844 357.9375 1242.242188 C 359.066406 1242.648438 360.203125 1243.023438 361.351562 1243.375 C 362.496094 1243.722656 363.652344 1244.042969 364.8125 1244.335938 C 365.976562 1244.628906 367.144531 1244.890625 368.320312 1245.128906 C 369.496094 1245.363281 370.675781 1245.566406 371.863281 1245.746094 C 373.046875 1245.921875 374.238281 1246.070312 375.429688 1246.1875 C 376.621094 1246.308594 377.816406 1246.398438 379.015625 1246.457031 C 380.210938 1246.519531 381.410156 1246.550781 382.609375 1246.550781 L 574.855469 1246.550781 C 576.550781 1246.550781 578.242188 1246.632812 579.925781 1246.800781 C 581.613281 1246.964844 583.285156 1247.214844 584.949219 1247.542969 C 586.609375 1247.875 588.25 1248.285156 589.871094 1248.777344 C 591.492188 1249.269531 593.085938 1249.839844 594.648438 1250.488281 C 596.214844 1251.136719 597.746094 1251.859375 599.238281 1252.660156 C 600.734375 1253.457031 602.183594 1254.328125 603.59375 1255.269531 C 605 1256.210938 606.359375 1257.21875 607.667969 1258.292969 C 608.980469 1259.367188 610.234375 1260.503906 611.429688 1261.699219 C 612.628906 1262.898438 613.765625 1264.152344 614.839844 1265.460938 C 615.914062 1266.769531 616.921875 1268.128906 617.863281 1269.539062 C 618.804688 1270.945312 619.675781 1272.398438 620.472656 1273.890625 C 621.269531 1275.386719 621.996094 1276.914062 622.644531 1278.480469 C 623.292969 1280.046875 623.863281 1281.640625 624.351562 1283.261719 C 624.84375 1284.882812 625.257812 1286.523438 625.585938 1288.183594 C 625.917969 1289.84375 626.164062 1291.519531 626.332031 1293.203125 C 626.496094 1294.890625 626.582031 1296.582031 626.582031 1298.273438 C 626.582031 1299.96875 626.496094 1301.660156 626.332031 1303.34375 C 626.164062 1305.03125 625.917969 1306.703125 625.585938 1308.367188 C 625.257812 1310.027344 624.84375 1311.667969 624.351562 1313.289062 C 623.863281 1314.910156 623.292969 1316.503906 622.644531 1318.070312 C 621.996094 1319.632812 621.269531 1321.164062 620.472656 1322.65625 C 619.675781 1324.152344 618.804688 1325.601562 617.863281 1327.011719 C 616.921875 1328.417969 615.914062 1329.777344 614.839844 1331.089844 C 613.765625 1332.398438 612.628906 1333.652344 611.429688 1334.847656 C 610.234375 1336.046875 608.980469 1337.183594 607.667969 1338.257812 C 606.359375 1339.332031 605 1340.339844 603.59375 1341.28125 C 602.183594 1342.222656 600.734375 1343.09375 599.238281 1343.890625 C 597.746094 1344.691406 596.214844 1345.414062 594.648438 1346.0625 C 593.085938 1346.710938 591.492188 1347.28125 589.871094 1347.769531 C 588.25 1348.261719 586.609375 1348.675781 584.949219 1349.003906 C 583.285156 1349.335938 581.613281 1349.582031 579.925781 1349.75 C 578.242188 1349.914062 576.550781 1350 574.855469 1350 Z M 943.007812 583.472656 L 1041.445312 681.910156 C 1042.167969 682.632812 1042.769531 683.445312 1043.253906 684.347656 C 1043.734375 685.25 1044.078125 686.203125 1044.277344 687.203125 C 1044.476562 688.207031 1044.523438 689.21875 1044.425781 690.238281 C 1044.324219 691.253906 1044.078125 692.234375 1043.6875 693.179688 C 1043.296875 694.125 1042.777344 694.996094 1042.125 695.785156 C 1041.476562 696.574219 1040.726562 697.253906 1039.878906 697.824219 C 1039.027344 698.390625 1038.113281 698.824219 1037.132812 699.121094 C 1036.15625 699.417969 1035.152344 699.566406 1034.128906 699.566406 L 547.117188 699.566406 C 545.421875 699.566406 543.730469 699.648438 542.046875 699.816406 C 540.359375 699.980469 538.6875 700.230469 537.023438 700.5625 C 535.363281 700.890625 533.722656 701.300781 532.101562 701.792969 C 530.480469 702.285156 528.886719 702.855469 527.320312 703.503906 C 525.757812 704.152344 524.226562 704.875 522.734375 705.675781 C 521.238281 706.472656 519.789062 707.34375 518.378906 708.285156 C 516.96875 709.226562 515.609375 710.234375 514.300781 711.308594 C 512.992188 712.382812 511.738281 713.519531 510.539062 714.71875 C 509.34375 715.914062 508.207031 717.167969 507.132812 718.476562 C 506.058594 719.789062 505.050781 721.148438 504.109375 722.554688 C 503.167969 723.964844 502.296875 725.414062 501.5 726.910156 C 500.699219 728.402344 499.976562 729.933594 499.328125 731.496094 C 498.679688 733.0625 498.109375 734.65625 497.617188 736.277344 C 497.125 737.898438 496.714844 739.539062 496.386719 741.199219 C 496.054688 742.863281 495.804688 744.535156 495.640625 746.222656 C 495.472656 747.90625 495.390625 749.597656 495.390625 751.292969 C 495.390625 752.984375 495.472656 754.675781 495.640625 756.363281 C 495.804688 758.046875 496.054688 759.722656 496.386719 761.382812 C 496.714844 763.042969 497.125 764.683594 497.617188 766.304688 C 498.109375 767.925781 498.679688 769.519531 499.328125 771.085938 C 499.976562 772.652344 500.699219 774.179688 501.5 775.675781 C 502.296875 777.167969 503.167969 778.621094 504.109375 780.027344 C 505.050781 781.4375 506.058594 782.796875 507.132812 784.105469 C 508.207031 785.414062 509.34375 786.667969 510.539062 787.867188 C 511.738281 789.0625 512.992188 790.199219 514.300781 791.273438 C 515.609375 792.351562 516.96875 793.359375 518.378906 794.300781 C 519.789062 795.238281 521.238281 796.109375 522.734375 796.910156 C 524.226562 797.707031 525.757812 798.429688 527.320312 799.078125 C 528.886719 799.726562 530.480469 800.296875 532.101562 800.789062 C 533.722656 801.28125 535.363281 801.691406 537.023438 802.023438 C 538.6875 802.351562 540.359375 802.601562 542.046875 802.765625 C 543.730469 802.933594 545.421875 803.015625 547.117188 803.015625 L 1031.542969 803.015625 C 1032.566406 803.015625 1033.570312 803.164062 1034.546875 803.460938 C 1035.527344 803.757812 1036.441406 804.1875 1037.292969 804.757812 C 1038.144531 805.324219 1038.894531 806.003906 1039.542969 806.796875 C 1040.191406 807.585938 1040.710938 808.457031 1041.101562 809.402344 C 1041.488281 810.347656 1041.726562 811.328125 1041.824219 812.34375 C 1041.921875 813.363281 1041.871094 814.371094 1041.671875 815.375 C 1041.472656 816.375 1041.132812 817.328125 1040.652344 818.230469 C 1040.175781 819.132812 1039.574219 819.949219 1038.859375 820.675781 L 943.007812 916.527344 C 941.84375 917.742188 940.742188 919.011719 939.699219 920.335938 C 938.65625 921.65625 937.679688 923.027344 936.769531 924.441406 C 935.855469 925.855469 935.015625 927.3125 934.242188 928.808594 C 933.46875 930.304688 932.769531 931.832031 932.144531 933.394531 C 931.515625 934.957031 930.964844 936.546875 930.488281 938.164062 C 930.015625 939.777344 929.617188 941.410156 929.300781 943.066406 C 928.980469 944.71875 928.738281 946.382812 928.578125 948.058594 C 928.417969 949.734375 928.339844 951.414062 928.339844 953.097656 C 928.339844 954.78125 928.417969 956.460938 928.578125 958.136719 C 928.738281 959.8125 928.980469 961.476562 929.300781 963.128906 C 929.617188 964.78125 930.015625 966.417969 930.488281 968.03125 C 930.964844 969.648438 931.515625 971.234375 932.144531 972.796875 C 932.769531 974.359375 933.46875 975.890625 934.242188 977.386719 C 935.015625 978.882812 935.855469 980.335938 936.769531 981.753906 C 937.679688 983.167969 938.65625 984.535156 939.699219 985.859375 C 940.742188 987.179688 941.84375 988.449219 943.007812 989.667969 C 944.207031 990.863281 945.460938 991.996094 946.769531 993.070312 C 948.082031 994.140625 949.441406 995.148438 950.851562 996.085938 C 952.257812 997.023438 953.710938 997.894531 955.203125 998.691406 C 956.699219 999.484375 958.226562 1000.207031 959.792969 1000.855469 C 961.355469 1001.5 962.949219 1002.070312 964.570312 1002.5625 C 966.191406 1003.050781 967.832031 1003.460938 969.492188 1003.792969 C 971.152344 1004.121094 972.824219 1004.367188 974.511719 1004.535156 C 976.195312 1004.699219 977.882812 1004.78125 979.578125 1004.78125 C 981.269531 1004.78125 982.960938 1004.699219 984.644531 1004.535156 C 986.328125 1004.367188 988.003906 1004.121094 989.664062 1003.792969 C 991.324219 1003.460938 992.964844 1003.050781 994.585938 1002.5625 C 996.207031 1002.070312 997.796875 1001.5 999.363281 1000.855469 C 1000.929688 1000.207031 1002.457031 999.484375 1003.949219 998.691406 C 1005.445312 997.894531 1006.894531 997.023438 1008.304688 996.085938 C 1009.714844 995.148438 1011.074219 994.140625 1012.382812 993.070312 C 1013.695312 991.996094 1014.949219 990.863281 1016.148438 989.667969 L 1255.816406 750 L 1016.148438 510.332031 C 1014.949219 509.136719 1013.695312 508 1012.382812 506.929688 C 1011.074219 505.855469 1009.714844 504.851562 1008.304688 503.910156 C 1006.898438 502.972656 1005.445312 502.105469 1003.953125 501.308594 C 1002.457031 500.511719 1000.929688 499.789062 999.363281 499.144531 C 997.796875 498.496094 996.207031 497.925781 994.585938 497.4375 C 992.964844 496.945312 991.324219 496.535156 989.664062 496.207031 C 988.003906 495.875 986.328125 495.628906 984.644531 495.464844 C 982.960938 495.296875 981.269531 495.214844 979.578125 495.214844 C 977.882812 495.214844 976.195312 495.296875 974.511719 495.464844 C 972.824219 495.628906 971.152344 495.875 969.492188 496.207031 C 967.832031 496.535156 966.191406 496.945312 964.570312 497.4375 C 962.949219 497.925781 961.355469 498.496094 959.792969 499.144531 C 958.226562 499.789062 956.699219 500.511719 955.203125 501.308594 C 953.710938 502.105469 952.257812 502.972656 950.851562 503.910156 C 949.441406 504.851562 948.082031 505.855469 946.769531 506.929688 C 945.460938 508 944.207031 509.136719 943.007812 510.332031 C 941.84375 511.546875 940.742188 512.816406 939.699219 514.140625 C 938.65625 515.460938 937.679688 516.832031 936.769531 518.246094 C 935.855469 519.660156 935.015625 521.117188 934.242188 522.613281 C 933.46875 524.109375 932.769531 525.636719 932.144531 527.199219 C 931.515625 528.761719 930.964844 530.351562 930.492188 531.964844 C 930.015625 533.582031 929.617188 535.214844 929.300781 536.867188 C 928.980469 538.519531 928.738281 540.1875 928.578125 541.863281 C 928.417969 543.539062 928.339844 545.21875 928.339844 546.902344 C 928.339844 548.585938 928.417969 550.265625 928.578125 551.941406 C 928.738281 553.617188 928.980469 555.28125 929.300781 556.933594 C 929.617188 558.585938 930.015625 560.21875 930.492188 561.835938 C 930.964844 563.449219 931.515625 565.039062 932.144531 566.601562 C 932.769531 568.164062 933.46875 569.695312 934.242188 571.1875 C 935.015625 572.683594 935.855469 574.140625 936.769531 575.554688 C 937.679688 576.972656 938.65625 578.339844 939.699219 579.664062 C 940.742188 580.984375 941.84375 582.253906 943.007812 583.472656 Z M 943.007812 583.472656 " fill-opacity="1" fill-rule="nonzero"/></g><g clip-path="url(#83e546767c)"><path fill="#999999" d="M 574.855469 1350 L 373.558594 1350 C 370.8125 1349.996094 368.074219 1349.925781 365.332031 1349.789062 C 362.59375 1349.648438 359.859375 1349.445312 357.128906 1349.175781 C 354.398438 1348.902344 351.679688 1348.5625 348.964844 1348.160156 C 346.25 1347.753906 343.550781 1347.285156 340.859375 1346.746094 C 338.171875 1346.207031 335.496094 1345.605469 332.835938 1344.9375 C 330.175781 1344.269531 327.53125 1343.535156 324.90625 1342.738281 C 322.28125 1341.9375 319.679688 1341.078125 317.097656 1340.152344 C 314.515625 1339.226562 311.957031 1338.238281 309.421875 1337.1875 C 306.890625 1336.132812 304.382812 1335.023438 301.90625 1333.847656 C 299.425781 1332.671875 296.976562 1331.4375 294.558594 1330.144531 C 292.140625 1328.851562 289.753906 1327.5 287.402344 1326.085938 C 285.046875 1324.675781 282.730469 1323.207031 280.453125 1321.683594 C 278.171875 1320.160156 275.929688 1318.578125 273.726562 1316.945312 C 271.523438 1315.308594 269.363281 1313.621094 267.242188 1311.882812 C 265.121094 1310.140625 263.046875 1308.351562 261.011719 1306.507812 C 258.980469 1304.664062 256.996094 1302.773438 255.054688 1300.835938 C 253.117188 1298.894531 251.226562 1296.910156 249.382812 1294.875 C 247.539062 1292.84375 245.75 1290.765625 244.007812 1288.648438 C 242.269531 1286.527344 240.582031 1284.363281 238.945312 1282.160156 C 237.3125 1279.960938 235.730469 1277.71875 234.207031 1275.4375 C 232.683594 1273.15625 231.214844 1270.839844 229.804688 1268.488281 C 228.394531 1266.136719 227.042969 1263.75 225.746094 1261.332031 C 224.453125 1258.910156 223.21875 1256.464844 222.046875 1253.984375 C 220.871094 1251.503906 219.757812 1248.996094 218.707031 1246.464844 C 217.65625 1243.929688 216.667969 1241.371094 215.742188 1238.789062 C 214.816406 1236.207031 213.957031 1233.605469 213.15625 1230.980469 C 212.359375 1228.355469 211.625 1225.714844 210.957031 1223.050781 C 210.289062 1220.390625 209.6875 1217.71875 209.148438 1215.027344 C 208.613281 1212.335938 208.140625 1209.636719 207.734375 1206.921875 C 207.332031 1204.210938 206.992188 1201.488281 206.722656 1198.757812 C 206.449219 1196.027344 206.246094 1193.292969 206.109375 1190.554688 C 205.972656 1187.8125 205.902344 1185.074219 205.898438 1182.328125 L 205.898438 317.667969 C 205.902344 314.925781 205.972656 312.183594 206.109375 309.441406 C 206.246094 306.703125 206.449219 303.96875 206.722656 301.238281 C 206.992188 298.507812 207.332031 295.789062 207.734375 293.074219 C 208.140625 290.363281 208.613281 287.660156 209.148438 284.96875 C 209.6875 282.28125 210.289062 279.605469 210.957031 276.945312 C 211.625 274.285156 212.359375 271.640625 213.15625 269.015625 C 213.957031 266.394531 214.816406 263.789062 215.742188 261.207031 C 216.667969 258.625 217.65625 256.066406 218.707031 253.53125 C 219.757812 251 220.871094 248.492188 222.046875 246.011719 C 223.21875 243.535156 224.453125 241.085938 225.746094 238.667969 C 227.042969 236.246094 228.394531 233.863281 229.804688 231.511719 C 231.214844 229.15625 232.683594 226.839844 234.207031 224.558594 C 235.730469 222.28125 237.3125 220.039062 238.945312 217.835938 C 240.582031 215.632812 242.269531 213.46875 244.007812 211.351562 C 245.75 209.230469 247.539062 207.152344 249.382812 205.121094 C 251.226562 203.089844 253.117188 201.101562 255.054688 199.164062 C 256.996094 197.222656 258.980469 195.332031 261.011719 193.488281 C 263.046875 191.648438 265.121094 189.855469 267.242188 188.117188 C 269.363281 186.375 271.523438 184.6875 273.726562 183.050781 C 275.929688 181.417969 278.171875 179.839844 280.453125 178.3125 C 282.730469 176.789062 285.046875 175.320312 287.402344 173.910156 C 289.753906 172.5 292.140625 171.144531 294.558594 169.851562 C 296.976562 168.558594 299.425781 167.324219 301.90625 166.148438 C 304.382812 164.976562 306.890625 163.863281 309.421875 162.8125 C 311.957031 161.761719 314.515625 160.773438 317.097656 159.847656 C 319.679688 158.921875 322.28125 158.058594 324.90625 157.261719 C 327.53125 156.460938 330.175781 155.730469 332.835938 155.058594 C 335.496094 154.390625 338.171875 153.789062 340.859375 153.25 C 343.550781 152.714844 346.25 152.242188 348.964844 151.835938 C 351.679688 151.433594 354.398438 151.09375 357.128906 150.824219 C 359.859375 150.550781 362.59375 150.347656 365.332031 150.210938 C 368.074219 150.070312 370.8125 150 373.558594 150 L 574.855469 150 C 576.550781 150 578.242188 150.082031 579.925781 150.246094 C 581.613281 150.410156 583.289062 150.660156 584.949219 150.988281 C 586.613281 151.320312 588.253906 151.730469 589.875 152.222656 C 591.496094 152.714844 593.089844 153.28125 594.65625 153.929688 C 596.222656 154.578125 597.75 155.300781 599.246094 156.101562 C 600.742188 156.898438 602.191406 157.769531 603.601562 158.710938 C 605.011719 159.652344 606.371094 160.660156 607.679688 161.734375 C 608.988281 162.808594 610.242188 163.945312 611.441406 165.140625 C 612.640625 166.339844 613.777344 167.59375 614.851562 168.902344 C 615.925781 170.214844 616.9375 171.570312 617.878906 172.980469 C 618.820312 174.390625 619.6875 175.839844 620.488281 177.335938 C 621.285156 178.828125 622.011719 180.359375 622.660156 181.925781 C 623.308594 183.488281 623.878906 185.082031 624.371094 186.703125 C 624.863281 188.324219 625.273438 189.96875 625.605469 191.628906 C 625.933594 193.292969 626.183594 194.964844 626.347656 196.652344 C 626.515625 198.339844 626.597656 200.027344 626.597656 201.722656 C 626.597656 203.417969 626.515625 205.105469 626.347656 206.792969 C 626.183594 208.480469 625.933594 210.152344 625.605469 211.816406 C 625.273438 213.476562 624.863281 215.117188 624.371094 216.742188 C 623.878906 218.363281 623.308594 219.957031 622.660156 221.519531 C 622.011719 223.085938 621.285156 224.617188 620.488281 226.109375 C 619.6875 227.605469 618.820312 229.054688 617.878906 230.464844 C 616.9375 231.875 615.925781 233.230469 614.851562 234.542969 C 613.777344 235.851562 612.640625 237.105469 611.441406 238.304688 C 610.242188 239.5 608.988281 240.636719 607.679688 241.710938 C 606.371094 242.785156 605.011719 243.792969 603.601562 244.734375 C 602.191406 245.675781 600.742188 246.546875 599.246094 247.34375 C 597.75 248.144531 596.222656 248.867188 594.65625 249.515625 C 593.089844 250.164062 591.496094 250.730469 589.875 251.222656 C 588.253906 251.714844 586.613281 252.125 584.949219 252.457031 C 583.289062 252.785156 581.613281 253.035156 579.925781 253.199219 C 578.242188 253.363281 576.550781 253.445312 574.855469 253.445312 L 382.609375 253.445312 C 381.410156 253.449219 380.210938 253.480469 379.015625 253.539062 C 377.816406 253.597656 376.621094 253.6875 375.429688 253.808594 C 374.238281 253.925781 373.046875 254.074219 371.863281 254.253906 C 370.675781 254.429688 369.496094 254.636719 368.320312 254.871094 C 367.144531 255.105469 365.976562 255.371094 364.8125 255.660156 C 363.652344 255.953125 362.496094 256.273438 361.351562 256.625 C 360.203125 256.972656 359.066406 257.347656 357.9375 257.753906 C 356.808594 258.160156 355.691406 258.589844 354.585938 259.050781 C 353.476562 259.507812 352.382812 259.996094 351.300781 260.507812 C 350.214844 261.023438 349.144531 261.5625 348.089844 262.128906 C 347.03125 262.691406 345.988281 263.285156 344.960938 263.902344 C 343.933594 264.515625 342.921875 265.160156 341.925781 265.824219 C 340.929688 266.492188 339.949219 267.183594 338.988281 267.894531 C 338.023438 268.609375 337.082031 269.347656 336.152344 270.109375 C 335.226562 270.871094 334.320312 271.652344 333.433594 272.457031 C 332.542969 273.261719 331.675781 274.089844 330.828125 274.9375 C 329.980469 275.785156 329.15625 276.652344 328.351562 277.539062 C 327.546875 278.429688 326.761719 279.335938 326 280.261719 C 325.242188 281.1875 324.503906 282.132812 323.789062 283.097656 C 323.074219 284.058594 322.386719 285.039062 321.71875 286.035156 C 321.054688 287.03125 320.410156 288.042969 319.796875 289.070312 C 319.179688 290.101562 318.585938 291.140625 318.023438 292.199219 C 317.457031 293.257812 316.917969 294.324219 316.40625 295.410156 C 315.890625 296.492188 315.40625 297.589844 314.945312 298.695312 C 314.488281 299.800781 314.054688 300.921875 313.652344 302.046875 C 313.246094 303.175781 312.871094 304.3125 312.519531 305.460938 C 312.171875 306.609375 311.851562 307.761719 311.558594 308.925781 C 311.265625 310.085938 311.003906 311.257812 310.769531 312.433594 C 310.535156 313.609375 310.328125 314.789062 310.152344 315.972656 C 309.972656 317.160156 309.828125 318.347656 309.707031 319.542969 C 309.589844 320.734375 309.5 321.929688 309.441406 323.125 C 309.378906 324.324219 309.347656 325.519531 309.347656 326.71875 L 309.347656 1173.277344 C 309.347656 1174.476562 309.378906 1175.675781 309.441406 1176.871094 C 309.5 1178.070312 309.589844 1179.261719 309.707031 1180.457031 C 309.828125 1181.648438 309.972656 1182.839844 310.152344 1184.023438 C 310.328125 1185.210938 310.535156 1186.390625 310.769531 1187.566406 C 311.003906 1188.742188 311.265625 1189.910156 311.558594 1191.070312 C 311.851562 1192.234375 312.171875 1193.390625 312.519531 1194.535156 C 312.871094 1195.683594 313.246094 1196.820312 313.652344 1197.949219 C 314.054688 1199.078125 314.488281 1200.195312 314.945312 1201.300781 C 315.40625 1202.410156 315.890625 1203.503906 316.40625 1204.589844 C 316.917969 1205.671875 317.457031 1206.742188 318.023438 1207.796875 C 318.585938 1208.855469 319.179688 1209.898438 319.796875 1210.925781 C 320.410156 1211.953125 321.054688 1212.964844 321.71875 1213.960938 C 322.386719 1214.957031 323.074219 1215.9375 323.789062 1216.902344 C 324.503906 1217.863281 325.242188 1218.808594 326 1219.734375 C 326.761719 1220.660156 327.546875 1221.570312 328.351562 1222.457031 C 329.15625 1223.34375 329.980469 1224.214844 330.828125 1225.0625 C 331.675781 1225.910156 332.542969 1226.734375 333.433594 1227.539062 C 334.320312 1228.34375 335.226562 1229.128906 336.152344 1229.886719 C 337.082031 1230.648438 338.023438 1231.386719 338.988281 1232.101562 C 339.949219 1232.816406 340.929688 1233.503906 341.925781 1234.171875 C 342.921875 1234.839844 343.933594 1235.480469 344.960938 1236.097656 C 345.988281 1236.714844 347.03125 1237.304688 348.089844 1237.871094 C 349.144531 1238.4375 350.214844 1238.976562 351.300781 1239.488281 C 352.382812 1240 353.476562 1240.488281 354.585938 1240.949219 C 355.691406 1241.40625 356.808594 1241.839844 357.9375 1242.242188 C 359.066406 1242.648438 360.203125 1243.023438 361.351562 1243.375 C 362.496094 1243.722656 363.652344 1244.042969 364.8125 1244.335938 C 365.976562 1244.628906 367.144531 1244.890625 368.320312 1245.128906 C 369.496094 1245.363281 370.675781 1245.566406 371.863281 1245.746094 C 373.046875 1245.921875 374.238281 1246.070312 375.429688 1246.1875 C 376.621094 1246.308594 377.816406 1246.398438 379.015625 1246.457031 C 380.210938 1246.519531 381.410156 1246.550781 382.609375 1246.550781 L 574.855469 1246.550781 C 576.550781 1246.550781 578.242188 1246.632812 579.925781 1246.800781 C 581.613281 1246.964844 583.285156 1247.214844 584.949219 1247.542969 C 586.609375 1247.875 588.25 1248.285156 589.871094 1248.777344 C 591.492188 1249.269531 593.085938 1249.839844 594.652344 1250.488281 C 596.214844 1251.136719 597.746094 1251.859375 599.238281 1252.660156 C 600.734375 1253.457031 602.183594 1254.328125 603.59375 1255.269531 C 605 1256.210938 606.359375 1257.21875 607.667969 1258.292969 C 608.980469 1259.367188 610.234375 1260.503906 611.429688 1261.699219 C 612.628906 1262.898438 613.765625 1264.152344 614.839844 1265.460938 C 615.914062 1266.769531 616.921875 1268.128906 617.863281 1269.539062 C 618.804688 1270.945312 619.675781 1272.398438 620.472656 1273.890625 C 621.273438 1275.386719 621.996094 1276.914062 622.644531 1278.480469 C 623.292969 1280.046875 623.863281 1281.640625 624.351562 1283.261719 C 624.84375 1284.882812 625.257812 1286.523438 625.585938 1288.183594 C 625.917969 1289.84375 626.164062 1291.519531 626.332031 1293.203125 C 626.496094 1294.890625 626.582031 1296.582031 626.582031 1298.273438 C 626.582031 1299.96875 626.496094 1301.660156 626.332031 1303.34375 C 626.164062 1305.03125 625.917969 1306.703125 625.585938 1308.367188 C 625.257812 1310.027344 624.84375 1311.667969 624.351562 1313.289062 C 623.863281 1314.910156 623.292969 1316.503906 622.644531 1318.070312 C 621.996094 1319.632812 621.273438 1321.164062 620.472656 1322.65625 C 619.675781 1324.152344 618.804688 1325.601562 617.863281 1327.011719 C 616.921875 1328.417969 615.914062 1329.777344 614.839844 1331.089844 C 613.765625 1332.398438 612.628906 1333.652344 611.429688 1334.847656 C 610.234375 1336.046875 608.980469 1337.183594 607.667969 1338.257812 C 606.359375 1339.332031 605 1340.339844 603.59375 1341.28125 C 602.183594 1342.222656 600.734375 1343.09375 599.238281 1343.890625 C 597.746094 1344.691406 596.214844 1345.414062 594.652344 1346.0625 C 593.085938 1346.710938 591.492188 1347.28125 589.871094 1347.769531 C 588.25 1348.261719 586.609375 1348.675781 584.949219 1349.003906 C 583.285156 1349.335938 581.613281 1349.582031 579.925781 1349.75 C 578.242188 1349.914062 576.550781 1350 574.855469 1350 Z M 943.007812 583.472656 L 1041.445312 681.910156 C 1042.167969 682.632812 1042.769531 683.445312 1043.253906 684.347656 C 1043.734375 685.25 1044.078125 686.203125 1044.277344 687.203125 C 1044.476562 688.207031 1044.523438 689.21875 1044.425781 690.238281 C 1044.324219 691.253906 1044.078125 692.234375 1043.6875 693.179688 C 1043.296875 694.125 1042.777344 694.996094 1042.125 695.785156 C 1041.476562 696.574219 1040.726562 697.253906 1039.878906 697.824219 C 1039.027344 698.390625 1038.113281 698.824219 1037.132812 699.121094 C 1036.15625 699.417969 1035.152344 699.566406 1034.132812 699.566406 L 547.117188 699.566406 C 545.421875 699.566406 543.730469 699.648438 542.046875 699.816406 C 540.359375 699.980469 538.6875 700.230469 537.023438 700.5625 C 535.363281 700.890625 533.722656 701.300781 532.101562 701.792969 C 530.480469 702.285156 528.886719 702.855469 527.320312 703.503906 C 525.757812 704.152344 524.226562 704.875 522.734375 705.675781 C 521.238281 706.472656 519.789062 707.34375 518.378906 708.285156 C 516.96875 709.226562 515.613281 710.234375 514.300781 711.308594 C 512.992188 712.382812 511.738281 713.519531 510.539062 714.71875 C 509.34375 715.914062 508.207031 717.167969 507.132812 718.476562 C 506.058594 719.789062 505.050781 721.144531 504.109375 722.554688 C 503.167969 723.964844 502.296875 725.414062 501.5 726.910156 C 500.699219 728.402344 499.976562 729.933594 499.328125 731.496094 C 498.679688 733.0625 498.109375 734.65625 497.617188 736.277344 C 497.125 737.898438 496.714844 739.539062 496.386719 741.199219 C 496.054688 742.863281 495.804688 744.535156 495.640625 746.222656 C 495.472656 747.90625 495.390625 749.597656 495.390625 751.292969 C 495.390625 752.984375 495.472656 754.675781 495.640625 756.363281 C 495.804688 758.046875 496.054688 759.722656 496.386719 761.382812 C 496.714844 763.042969 497.125 764.683594 497.617188 766.304688 C 498.109375 767.925781 498.679688 769.519531 499.328125 771.085938 C 499.976562 772.652344 500.699219 774.179688 501.5 775.675781 C 502.296875 777.167969 503.167969 778.621094 504.109375 780.027344 C 505.050781 781.4375 506.058594 782.796875 507.132812 784.105469 C 508.207031 785.414062 509.34375 786.667969 510.539062 787.867188 C 511.738281 789.0625 512.992188 790.199219 514.300781 791.273438 C 515.613281 792.351562 516.96875 793.359375 518.378906 794.300781 C 519.789062 795.238281 521.238281 796.109375 522.734375 796.910156 C 524.226562 797.707031 525.757812 798.429688 527.320312 799.078125 C 528.886719 799.726562 530.480469 800.296875 532.101562 800.789062 C 533.722656 801.28125 535.363281 801.691406 537.023438 802.023438 C 538.6875 802.351562 540.359375 802.601562 542.046875 802.765625 C 543.730469 802.933594 545.421875 803.015625 547.117188 803.015625 L 1031.546875 803.015625 C 1032.566406 803.015625 1033.570312 803.164062 1034.546875 803.460938 C 1035.527344 803.757812 1036.441406 804.1875 1037.292969 804.757812 C 1038.144531 805.324219 1038.894531 806.003906 1039.542969 806.796875 C 1040.191406 807.585938 1040.710938 808.453125 1041.101562 809.402344 C 1041.488281 810.347656 1041.726562 811.328125 1041.824219 812.34375 C 1041.921875 813.363281 1041.871094 814.371094 1041.671875 815.375 C 1041.472656 816.375 1041.132812 817.328125 1040.652344 818.230469 C 1040.175781 819.132812 1039.574219 819.949219 1038.859375 820.675781 L 943.007812 916.527344 C 941.84375 917.742188 940.742188 919.011719 939.699219 920.335938 C 938.65625 921.65625 937.679688 923.027344 936.769531 924.441406 C 935.855469 925.855469 935.015625 927.3125 934.242188 928.808594 C 933.46875 930.304688 932.769531 931.832031 932.144531 933.394531 C 931.515625 934.957031 930.964844 936.546875 930.492188 938.164062 C 930.015625 939.777344 929.617188 941.410156 929.300781 943.0625 C 928.980469 944.71875 928.738281 946.382812 928.578125 948.058594 C 928.417969 949.734375 928.339844 951.414062 928.339844 953.097656 C 928.339844 954.78125 928.417969 956.460938 928.578125 958.136719 C 928.738281 959.8125 928.980469 961.476562 929.300781 963.128906 C 929.617188 964.78125 930.015625 966.417969 930.492188 968.03125 C 930.964844 969.648438 931.515625 971.234375 932.144531 972.796875 C 932.769531 974.359375 933.46875 975.890625 934.242188 977.386719 C 935.015625 978.882812 935.855469 980.335938 936.769531 981.753906 C 937.679688 983.167969 938.65625 984.535156 939.699219 985.859375 C 940.742188 987.179688 941.84375 988.449219 943.007812 989.667969 C 944.207031 990.863281 945.460938 991.996094 946.769531 993.070312 C 948.082031 994.140625 949.441406 995.148438 950.851562 996.085938 C 952.257812 997.023438 953.710938 997.894531 955.203125 998.6875 C 956.699219 999.484375 958.226562 1000.207031 959.792969 1000.855469 C 961.355469 1001.5 962.949219 1002.070312 964.570312 1002.5625 C 966.191406 1003.050781 967.832031 1003.460938 969.492188 1003.792969 C 971.152344 1004.121094 972.824219 1004.367188 974.511719 1004.535156 C 976.195312 1004.699219 977.882812 1004.78125 979.578125 1004.78125 C 981.269531 1004.78125 982.960938 1004.699219 984.644531 1004.535156 C 986.328125 1004.367188 988.003906 1004.121094 989.664062 1003.792969 C 991.324219 1003.460938 992.964844 1003.050781 994.585938 1002.5625 C 996.207031 1002.070312 997.796875 1001.5 999.363281 1000.855469 C 1000.929688 1000.207031 1002.457031 999.484375 1003.953125 998.691406 C 1005.445312 997.894531 1006.898438 997.023438 1008.304688 996.085938 C 1009.714844 995.148438 1011.074219 994.140625 1012.382812 993.070312 C 1013.695312 991.996094 1014.949219 990.863281 1016.148438 989.667969 L 1255.816406 750 L 1016.148438 510.332031 C 1014.949219 509.136719 1013.695312 508 1012.382812 506.929688 C 1011.074219 505.855469 1009.714844 504.851562 1008.304688 503.910156 C 1006.898438 502.972656 1005.445312 502.105469 1003.953125 501.308594 C 1002.457031 500.511719 1000.929688 499.789062 999.363281 499.144531 C 997.796875 498.496094 996.207031 497.925781 994.585938 497.4375 C 992.964844 496.945312 991.324219 496.535156 989.664062 496.207031 C 988.003906 495.875 986.328125 495.628906 984.644531 495.464844 C 982.960938 495.296875 981.269531 495.214844 979.578125 495.214844 C 977.882812 495.214844 976.195312 495.296875 974.511719 495.464844 C 972.824219 495.628906 971.152344 495.875 969.492188 496.207031 C 967.832031 496.535156 966.191406 496.945312 964.570312 497.4375 C 962.949219 497.925781 961.355469 498.496094 959.792969 499.144531 C 958.226562 499.789062 956.699219 500.511719 955.203125 501.308594 C 953.710938 502.105469 952.257812 502.972656 950.851562 503.910156 C 949.441406 504.851562 948.082031 505.855469 946.769531 506.929688 C 945.460938 508 944.207031 509.136719 943.007812 510.332031 C 941.84375 511.546875 940.742188 512.816406 939.699219 514.140625 C 938.65625 515.460938 937.679688 516.828125 936.769531 518.246094 C 935.855469 519.660156 935.015625 521.117188 934.242188 522.613281 C 933.46875 524.109375 932.769531 525.636719 932.144531 527.199219 C 931.515625 528.761719 930.964844 530.351562 930.492188 531.964844 C 930.015625 533.582031 929.617188 535.214844 929.300781 536.867188 C 928.980469 538.519531 928.742188 540.1875 928.578125 541.863281 C 928.417969 543.539062 928.339844 545.21875 928.339844 546.902344 C 928.339844 548.585938 928.417969 550.265625 928.578125 551.941406 C 928.742188 553.617188 928.980469 555.28125 929.300781 556.933594 C 929.617188 558.585938 930.015625 560.21875 930.492188 561.835938 C 930.964844 563.449219 931.515625 565.039062 932.144531 566.601562 C 932.769531 568.164062 933.46875 569.695312 934.242188 571.1875 C 935.015625 572.683594 935.855469 574.140625 936.769531 575.554688 C 937.679688 576.972656 938.65625 578.339844 939.699219 579.664062 C 940.742188 580.984375 941.84375 582.253906 943.007812 583.472656 Z M 943.007812 583.472656 " fill-opacity="1" fill-rule="nonzero"/></g><g clip-path="url(#ead441525e)"><path fill="#999999" d="M 574.855469 1350 L 373.558594 1350 C 370.8125 1349.996094 368.074219 1349.925781 365.332031 1349.789062 C 362.59375 1349.648438 359.859375 1349.445312 357.128906 1349.175781 C 354.398438 1348.902344 351.679688 1348.566406 348.964844 1348.160156 C 346.25 1347.753906 343.550781 1347.285156 340.859375 1346.746094 C 338.171875 1346.207031 335.496094 1345.605469 332.835938 1344.9375 C 330.175781 1344.269531 327.53125 1343.535156 324.90625 1342.738281 C 322.28125 1341.9375 319.679688 1341.078125 317.097656 1340.152344 C 314.515625 1339.226562 311.957031 1338.238281 309.421875 1337.1875 C 306.890625 1336.132812 304.382812 1335.023438 301.90625 1333.847656 C 299.425781 1332.671875 296.976562 1331.4375 294.558594 1330.144531 C 292.140625 1328.851562 289.753906 1327.5 287.402344 1326.085938 C 285.046875 1324.675781 282.730469 1323.207031 280.453125 1321.683594 C 278.171875 1320.160156 275.929688 1318.578125 273.726562 1316.945312 C 271.523438 1315.308594 269.363281 1313.621094 267.242188 1311.882812 C 265.121094 1310.140625 263.046875 1308.351562 261.011719 1306.507812 C 258.980469 1304.664062 256.996094 1302.773438 255.054688 1300.835938 C 253.117188 1298.894531 251.226562 1296.910156 249.382812 1294.875 C 247.539062 1292.84375 245.75 1290.765625 244.007812 1288.648438 C 242.269531 1286.527344 240.582031 1284.363281 238.945312 1282.160156 C 237.3125 1279.960938 235.730469 1277.71875 234.207031 1275.4375 C 232.683594 1273.15625 231.214844 1270.839844 229.804688 1268.488281 C 228.394531 1266.136719 227.042969 1263.75 225.746094 1261.332031 C 224.453125 1258.910156 223.21875 1256.464844 222.046875 1253.984375 C 220.871094 1251.503906 219.757812 1249 218.707031 1246.464844 C 217.65625 1243.929688 216.667969 1241.371094 215.742188 1238.789062 C 214.816406 1236.207031 213.957031 1233.605469 213.15625 1230.980469 C 212.359375 1228.355469 211.625 1225.714844 210.957031 1223.050781 C 210.289062 1220.390625 209.6875 1217.71875 209.148438 1215.027344 C 208.613281 1212.335938 208.140625 1209.636719 207.734375 1206.921875 C 207.332031 1204.210938 206.992188 1201.488281 206.722656 1198.757812 C 206.449219 1196.027344 206.246094 1193.292969 206.109375 1190.554688 C 205.972656 1187.816406 205.902344 1185.074219 205.898438 1182.328125 L 205.898438 317.667969 C 205.902344 314.925781 205.972656 312.183594 206.109375 309.441406 C 206.246094 306.703125 206.449219 303.96875 206.722656 301.238281 C 206.992188 298.507812 207.332031 295.789062 207.734375 293.074219 C 208.140625 290.363281 208.613281 287.660156 209.148438 284.96875 C 209.6875 282.28125 210.289062 279.605469 210.957031 276.945312 C 211.625 274.285156 212.359375 271.640625 213.15625 269.015625 C 213.957031 266.394531 214.816406 263.789062 215.742188 261.207031 C 216.667969 258.625 217.65625 256.066406 218.707031 253.53125 C 219.757812 251 220.871094 248.492188 222.046875 246.011719 C 223.21875 243.535156 224.453125 241.085938 225.746094 238.667969 C 227.042969 236.246094 228.394531 233.863281 229.804688 231.511719 C 231.214844 229.15625 232.683594 226.839844 234.207031 224.558594 C 235.730469 222.28125 237.3125 220.039062 238.945312 217.835938 C 240.582031 215.632812 242.269531 213.46875 244.007812 211.351562 C 245.75 209.230469 247.539062 207.152344 249.382812 205.121094 C 251.226562 203.089844 253.117188 201.101562 255.054688 199.164062 C 256.996094 197.222656 258.980469 195.332031 261.011719 193.488281 C 263.046875 191.648438 265.121094 189.855469 267.242188 188.117188 C 269.363281 186.375 271.523438 184.6875 273.726562 183.050781 C 275.929688 181.417969 278.171875 179.839844 280.453125 178.3125 C 282.730469 176.789062 285.046875 175.320312 287.402344 173.910156 C 289.753906 172.5 292.140625 171.144531 294.558594 169.851562 C 296.976562 168.558594 299.425781 167.324219 301.90625 166.148438 C 304.382812 164.976562 306.890625 163.863281 309.421875 162.8125 C 311.957031 161.761719 314.515625 160.773438 317.097656 159.847656 C 319.679688 158.921875 322.28125 158.058594 324.90625 157.261719 C 327.53125 156.460938 330.175781 155.730469 332.835938 155.058594 C 335.496094 154.390625 338.171875 153.789062 340.859375 153.25 C 343.550781 152.714844 346.25 152.242188 348.964844 151.835938 C 351.679688 151.433594 354.398438 151.09375 357.128906 150.824219 C 359.859375 150.550781 362.59375 150.347656 365.332031 150.210938 C 368.074219 150.070312 370.8125 150 373.558594 150 L 574.855469 150 C 576.550781 150 578.242188 150.082031 579.925781 150.246094 C 581.613281 150.410156 583.289062 150.660156 584.949219 150.988281 C 586.613281 151.320312 588.253906 151.730469 589.875 152.222656 C 591.496094 152.714844 593.089844 153.28125 594.65625 153.929688 C 596.222656 154.578125 597.75 155.300781 599.246094 156.101562 C 600.742188 156.898438 602.191406 157.769531 603.601562 158.710938 C 605.011719 159.652344 606.371094 160.660156 607.679688 161.734375 C 608.988281 162.808594 610.242188 163.945312 611.441406 165.140625 C 612.640625 166.339844 613.777344 167.59375 614.851562 168.902344 C 615.925781 170.214844 616.9375 171.570312 617.878906 172.980469 C 618.820312 174.390625 619.6875 175.839844 620.488281 177.335938 C 621.285156 178.828125 622.011719 180.359375 622.660156 181.925781 C 623.308594 183.488281 623.878906 185.082031 624.371094 186.703125 C 624.863281 188.328125 625.273438 189.96875 625.605469 191.628906 C 625.933594 193.292969 626.183594 194.964844 626.347656 196.652344 C 626.515625 198.339844 626.597656 200.027344 626.597656 201.722656 C 626.597656 203.417969 626.515625 205.105469 626.347656 206.792969 C 626.183594 208.480469 625.933594 210.152344 625.605469 211.816406 C 625.273438 213.476562 624.863281 215.117188 624.371094 216.742188 C 623.878906 218.363281 623.308594 219.957031 622.660156 221.519531 C 622.011719 223.085938 621.285156 224.617188 620.488281 226.109375 C 619.6875 227.605469 618.820312 229.054688 617.878906 230.464844 C 616.9375 231.875 615.925781 233.230469 614.851562 234.542969 C 613.777344 235.851562 612.640625 237.105469 611.441406 238.304688 C 610.242188 239.5 608.988281 240.636719 607.679688 241.710938 C 606.371094 242.785156 605.011719 243.792969 603.601562 244.734375 C 602.191406 245.675781 600.742188 246.546875 599.246094 247.34375 C 597.75 248.144531 596.222656 248.867188 594.65625 249.515625 C 593.089844 250.164062 591.496094 250.730469 589.875 251.222656 C 588.253906 251.714844 586.613281 252.125 584.949219 252.457031 C 583.289062 252.785156 581.613281 253.035156 579.925781 253.199219 C 578.242188 253.363281 576.550781 253.445312 574.855469 253.445312 L 382.609375 253.445312 C 381.410156 253.449219 380.210938 253.480469 379.015625 253.539062 C 377.816406 253.601562 376.621094 253.6875 375.429688 253.808594 C 374.238281 253.925781 373.046875 254.074219 371.863281 254.253906 C 370.675781 254.429688 369.496094 254.636719 368.320312 254.871094 C 367.144531 255.105469 365.976562 255.371094 364.8125 255.660156 C 363.652344 255.953125 362.496094 256.273438 361.351562 256.625 C 360.203125 256.972656 359.066406 257.347656 357.9375 257.753906 C 356.808594 258.160156 355.691406 258.589844 354.585938 259.050781 C 353.476562 259.507812 352.382812 259.996094 351.300781 260.507812 C 350.214844 261.023438 349.144531 261.5625 348.089844 262.128906 C 347.03125 262.691406 345.988281 263.285156 344.960938 263.902344 C 343.933594 264.519531 342.921875 265.160156 341.925781 265.824219 C 340.929688 266.492188 339.949219 267.183594 338.988281 267.898438 C 338.023438 268.609375 337.082031 269.347656 336.152344 270.109375 C 335.226562 270.871094 334.320312 271.652344 333.433594 272.457031 C 332.542969 273.261719 331.675781 274.089844 330.828125 274.9375 C 329.980469 275.785156 329.15625 276.652344 328.351562 277.539062 C 327.546875 278.429688 326.761719 279.335938 326 280.261719 C 325.242188 281.1875 324.503906 282.132812 323.789062 283.097656 C 323.074219 284.058594 322.386719 285.039062 321.71875 286.035156 C 321.054688 287.03125 320.410156 288.042969 319.796875 289.070312 C 319.179688 290.101562 318.585938 291.140625 318.023438 292.199219 C 317.457031 293.257812 316.917969 294.324219 316.40625 295.410156 C 315.890625 296.492188 315.40625 297.589844 314.945312 298.695312 C 314.488281 299.800781 314.054688 300.921875 313.652344 302.046875 C 313.246094 303.175781 312.871094 304.3125 312.519531 305.460938 C 312.171875 306.609375 311.851562 307.761719 311.558594 308.925781 C 311.265625 310.085938 311.003906 311.257812 310.769531 312.433594 C 310.535156 313.609375 310.328125 314.789062 310.152344 315.972656 C 309.972656 317.160156 309.828125 318.347656 309.707031 319.542969 C 309.589844 320.734375 309.5 321.929688 309.441406 323.125 C 309.378906 324.324219 309.347656 325.519531 309.347656 326.71875 L 309.347656 1173.277344 C 309.347656 1174.476562 309.378906 1175.675781 309.441406 1176.871094 C 309.5 1178.070312 309.589844 1179.261719 309.707031 1180.457031 C 309.828125 1181.648438 309.972656 1182.839844 310.152344 1184.023438 C 310.328125 1185.210938 310.535156 1186.390625 310.769531 1187.566406 C 311.003906 1188.742188 311.265625 1189.910156 311.558594 1191.070312 C 311.851562 1192.234375 312.171875 1193.390625 312.519531 1194.535156 C 312.871094 1195.683594 313.246094 1196.820312 313.652344 1197.949219 C 314.054688 1199.078125 314.488281 1200.195312 314.945312 1201.300781 C 315.40625 1202.410156 315.890625 1203.503906 316.40625 1204.589844 C 316.917969 1205.671875 317.457031 1206.742188 318.023438 1207.796875 C 318.585938 1208.855469 319.179688 1209.898438 319.796875 1210.925781 C 320.410156 1211.953125 321.054688 1212.964844 321.71875 1213.960938 C 322.386719 1214.957031 323.074219 1215.9375 323.789062 1216.902344 C 324.503906 1217.863281 325.242188 1218.808594 326 1219.734375 C 326.761719 1220.660156 327.546875 1221.570312 328.351562 1222.457031 C 329.15625 1223.34375 329.980469 1224.214844 330.828125 1225.0625 C 331.675781 1225.910156 332.542969 1226.734375 333.433594 1227.539062 C 334.320312 1228.34375 335.226562 1229.128906 336.152344 1229.886719 C 337.082031 1230.648438 338.023438 1231.386719 338.988281 1232.101562 C 339.949219 1232.816406 340.929688 1233.503906 341.925781 1234.171875 C 342.921875 1234.839844 343.933594 1235.480469 344.960938 1236.097656 C 345.988281 1236.714844 347.03125 1237.304688 348.089844 1237.871094 C 349.144531 1238.4375 350.214844 1238.976562 351.300781 1239.488281 C 352.382812 1240 353.476562 1240.488281 354.585938 1240.949219 C 355.691406 1241.40625 356.808594 1241.839844 357.9375 1242.242188 C 359.066406 1242.648438 360.203125 1243.023438 361.351562 1243.375 C 362.496094 1243.722656 363.652344 1244.042969 364.8125 1244.335938 C 365.976562 1244.628906 367.144531 1244.890625 368.320312 1245.128906 C 369.496094 1245.363281 370.675781 1245.566406 371.863281 1245.746094 C 373.046875 1245.921875 374.238281 1246.070312 375.429688 1246.1875 C 376.621094 1246.308594 377.816406 1246.398438 379.015625 1246.457031 C 380.210938 1246.519531 381.410156 1246.550781 382.609375 1246.550781 L 574.855469 1246.550781 C 576.550781 1246.550781 578.242188 1246.632812 579.925781 1246.800781 C 581.613281 1246.964844 583.285156 1247.214844 584.949219 1247.542969 C 586.609375 1247.875 588.25 1248.285156 589.871094 1248.777344 C 591.492188 1249.269531 593.085938 1249.839844 594.652344 1250.488281 C 596.214844 1251.136719 597.746094 1251.859375 599.238281 1252.660156 C 600.734375 1253.457031 602.183594 1254.328125 603.59375 1255.269531 C 605 1256.210938 606.359375 1257.21875 607.667969 1258.292969 C 608.980469 1259.367188 610.234375 1260.503906 611.429688 1261.699219 C 612.628906 1262.898438 613.765625 1264.152344 614.839844 1265.460938 C 615.914062 1266.769531 616.921875 1268.128906 617.863281 1269.539062 C 618.804688 1270.945312 619.675781 1272.398438 620.472656 1273.890625 C 621.273438 1275.386719 621.996094 1276.914062 622.644531 1278.480469 C 623.292969 1280.046875 623.863281 1281.640625 624.351562 1283.261719 C 624.84375 1284.882812 625.257812 1286.523438 625.585938 1288.183594 C 625.917969 1289.84375 626.164062 1291.519531 626.332031 1293.203125 C 626.496094 1294.890625 626.582031 1296.582031 626.582031 1298.273438 C 626.582031 1299.96875 626.496094 1301.660156 626.332031 1303.34375 C 626.164062 1305.03125 625.917969 1306.703125 625.585938 1308.367188 C 625.257812 1310.027344 624.84375 1311.667969 624.351562 1313.289062 C 623.863281 1314.910156 623.292969 1316.503906 622.644531 1318.070312 C 621.996094 1319.632812 621.273438 1321.164062 620.472656 1322.65625 C 619.675781 1324.152344 618.804688 1325.601562 617.863281 1327.011719 C 616.921875 1328.417969 615.914062 1329.777344 614.839844 1331.089844 C 613.765625 1332.398438 612.628906 1333.652344 611.429688 1334.847656 C 610.234375 1336.046875 608.980469 1337.183594 607.667969 1338.257812 C 606.359375 1339.332031 605 1340.339844 603.59375 1341.28125 C 602.183594 1342.222656 600.734375 1343.09375 599.238281 1343.890625 C 597.746094 1344.691406 596.214844 1345.414062 594.652344 1346.0625 C 593.085938 1346.710938 591.492188 1347.28125 589.871094 1347.769531 C 588.25 1348.261719 586.609375 1348.675781 584.949219 1349.003906 C 583.285156 1349.335938 581.613281 1349.582031 579.925781 1349.75 C 578.242188 1349.914062 576.550781 1350 574.855469 1350 Z M 943.007812 583.472656 L 1041.445312 681.910156 C 1042.167969 682.632812 1042.769531 683.445312 1043.253906 684.347656 C 1043.734375 685.25 1044.078125 686.203125 1044.277344 687.203125 C 1044.476562 688.207031 1044.523438 689.21875 1044.425781 690.238281 C 1044.324219 691.253906 1044.078125 692.234375 1043.6875 693.179688 C 1043.296875 694.125 1042.777344 694.996094 1042.125 695.785156 C 1041.476562 696.574219 1040.726562 697.253906 1039.878906 697.824219 C 1039.027344 698.390625 1038.113281 698.824219 1037.132812 699.121094 C 1036.15625 699.417969 1035.152344 699.566406 1034.132812 699.566406 L 547.117188 699.566406 C 545.421875 699.566406 543.730469 699.648438 542.046875 699.816406 C 540.359375 699.980469 538.6875 700.230469 537.023438 700.5625 C 535.363281 700.890625 533.722656 701.300781 532.101562 701.792969 C 530.480469 702.285156 528.886719 702.855469 527.320312 703.503906 C 525.757812 704.152344 524.226562 704.875 522.734375 705.675781 C 521.238281 706.472656 519.789062 707.34375 518.378906 708.285156 C 516.96875 709.226562 515.613281 710.234375 514.300781 711.308594 C 512.992188 712.382812 511.738281 713.519531 510.539062 714.71875 C 509.34375 715.914062 508.207031 717.167969 507.132812 718.476562 C 506.058594 719.789062 505.050781 721.148438 504.109375 722.554688 C 503.167969 723.964844 502.296875 725.414062 501.5 726.910156 C 500.699219 728.402344 499.976562 729.933594 499.328125 731.496094 C 498.679688 733.0625 498.109375 734.65625 497.617188 736.277344 C 497.125 737.898438 496.714844 739.539062 496.386719 741.199219 C 496.054688 742.863281 495.804688 744.535156 495.640625 746.222656 C 495.472656 747.90625 495.390625 749.597656 495.390625 751.292969 C 495.390625 752.984375 495.472656 754.675781 495.640625 756.363281 C 495.804688 758.046875 496.054688 759.722656 496.386719 761.382812 C 496.714844 763.042969 497.125 764.683594 497.617188 766.304688 C 498.109375 767.925781 498.679688 769.519531 499.328125 771.085938 C 499.976562 772.652344 500.699219 774.179688 501.5 775.675781 C 502.296875 777.167969 503.167969 778.621094 504.109375 780.027344 C 505.050781 781.4375 506.058594 782.796875 507.132812 784.105469 C 508.207031 785.414062 509.34375 786.667969 510.539062 787.867188 C 511.738281 789.0625 512.992188 790.199219 514.300781 791.273438 C 515.613281 792.351562 516.96875 793.359375 518.378906 794.300781 C 519.789062 795.238281 521.238281 796.109375 522.734375 796.910156 C 524.226562 797.707031 525.757812 798.429688 527.320312 799.078125 C 528.886719 799.726562 530.480469 800.296875 532.101562 800.789062 C 533.722656 801.28125 535.363281 801.691406 537.023438 802.023438 C 538.6875 802.351562 540.359375 802.601562 542.046875 802.765625 C 543.730469 802.933594 545.421875 803.015625 547.117188 803.015625 L 1031.546875 803.015625 C 1032.566406 803.015625 1033.570312 803.164062 1034.546875 803.460938 C 1035.527344 803.757812 1036.441406 804.1875 1037.292969 804.757812 C 1038.144531 805.324219 1038.894531 806.003906 1039.542969 806.796875 C 1040.191406 807.585938 1040.710938 808.457031 1041.101562 809.402344 C 1041.488281 810.347656 1041.726562 811.328125 1041.824219 812.34375 C 1041.921875 813.363281 1041.871094 814.371094 1041.671875 815.375 C 1041.472656 816.375 1041.132812 817.328125 1040.652344 818.230469 C 1040.175781 819.132812 1039.574219 819.949219 1038.859375 820.675781 L 943.007812 916.527344 C 941.84375 917.742188 940.742188 919.011719 939.699219 920.335938 C 938.65625 921.65625 937.679688 923.027344 936.769531 924.441406 C 935.855469 925.855469 935.015625 927.3125 934.242188 928.808594 C 933.46875 930.304688 932.769531 931.832031 932.144531 933.394531 C 931.515625 934.957031 930.964844 936.546875 930.492188 938.164062 C 930.015625 939.777344 929.617188 941.410156 929.300781 943.066406 C 928.980469 944.71875 928.738281 946.382812 928.578125 948.058594 C 928.417969 949.734375 928.339844 951.414062 928.339844 953.097656 C 928.339844 954.78125 928.417969 956.460938 928.578125 958.136719 C 928.738281 959.8125 928.980469 961.476562 929.300781 963.128906 C 929.617188 964.78125 930.015625 966.417969 930.492188 968.03125 C 930.964844 969.648438 931.515625 971.234375 932.144531 972.796875 C 932.769531 974.359375 933.46875 975.890625 934.242188 977.386719 C 935.015625 978.882812 935.855469 980.335938 936.769531 981.753906 C 937.679688 983.167969 938.65625 984.535156 939.699219 985.859375 C 940.742188 987.179688 941.84375 988.449219 943.007812 989.667969 C 944.207031 990.863281 945.460938 991.996094 946.769531 993.070312 C 948.082031 994.140625 949.441406 995.148438 950.851562 996.085938 C 952.257812 997.023438 953.710938 997.894531 955.203125 998.691406 C 956.699219 999.484375 958.226562 1000.207031 959.792969 1000.855469 C 961.355469 1001.5 962.949219 1002.070312 964.570312 1002.5625 C 966.191406 1003.050781 967.832031 1003.460938 969.492188 1003.792969 C 971.152344 1004.121094 972.824219 1004.367188 974.511719 1004.535156 C 976.195312 1004.699219 977.882812 1004.78125 979.578125 1004.78125 C 981.269531 1004.78125 982.960938 1004.699219 984.644531 1004.535156 C 986.328125 1004.367188 988.003906 1004.121094 989.664062 1003.792969 C 991.324219 1003.460938 992.964844 1003.050781 994.585938 1002.5625 C 996.207031 1002.070312 997.796875 1001.5 999.363281 1000.855469 C 1000.929688 1000.207031 1002.457031 999.484375 1003.953125 998.691406 C 1005.445312 997.894531 1006.898438 997.023438 1008.304688 996.085938 C 1009.714844 995.148438 1011.074219 994.140625 1012.382812 993.070312 C 1013.695312 991.996094 1014.949219 990.863281 1016.148438 989.667969 L 1255.816406 750 L 1016.148438 510.332031 C 1014.949219 509.136719 1013.695312 508 1012.382812 506.929688 C 1011.074219 505.855469 1009.714844 504.851562 1008.304688 503.910156 C 1006.898438 502.972656 1005.445312 502.105469 1003.953125 501.308594 C 1002.457031 500.511719 1000.929688 499.789062 999.363281 499.144531 C 997.796875 498.496094 996.207031 497.925781 994.585938 497.4375 C 992.964844 496.945312 991.324219 496.535156 989.664062 496.207031 C 988.003906 495.875 986.328125 495.628906 984.644531 495.464844 C 982.960938 495.296875 981.269531 495.214844 979.578125 495.214844 C 977.882812 495.214844 976.195312 495.296875 974.511719 495.464844 C 972.824219 495.628906 971.152344 495.875 969.492188 496.207031 C 967.832031 496.535156 966.191406 496.945312 964.570312 497.4375 C 962.949219 497.925781 961.355469 498.496094 959.792969 499.144531 C 958.226562 499.789062 956.699219 500.511719 955.203125 501.308594 C 953.710938 502.105469 952.257812 502.972656 950.851562 503.910156 C 949.441406 504.851562 948.082031 505.855469 946.769531 506.929688 C 945.460938 508 944.207031 509.136719 943.007812 510.332031 C 941.84375 511.546875 940.742188 512.816406 939.699219 514.140625 C 938.65625 515.460938 937.679688 516.832031 936.769531 518.246094 C 935.855469 519.660156 935.015625 521.117188 934.242188 522.613281 C 933.46875 524.109375 932.769531 525.636719 932.144531 527.199219 C 931.515625 528.761719 930.964844 530.351562 930.492188 531.964844 C 930.015625 533.582031 929.617188 535.214844 929.300781 536.867188 C 928.980469 538.519531 928.742188 540.1875 928.578125 541.863281 C 928.417969 543.539062 928.339844 545.21875 928.339844 546.902344 C 928.339844 548.585938 928.417969 550.265625 928.578125 551.941406 C 928.742188 553.617188 928.980469 555.28125 929.300781 556.933594 C 929.617188 558.585938 930.015625 560.21875 930.492188 561.835938 C 930.964844 563.449219 931.515625 565.039062 932.144531 566.601562 C 932.769531 568.164062 933.46875 569.695312 934.242188 571.1875 C 935.015625 572.683594 935.855469 574.140625 936.769531 575.554688 C 937.679688 576.972656 938.65625 578.339844 939.699219 579.664062 C 940.742188 580.984375 941.84375 582.253906 943.007812 583.472656 Z M 943.007812 583.472656 " fill-opacity="1" fill-rule="nonzero"/></g><g clip-path="url(#068fb6ce16)"><g transform="matrix(1, 0, 0, 1, 514, 477)"><g clip-path="url(#3e1e2689ed)"><g clip-path="url(#9641a3e99a)"><path fill="#999999" d="M 99.132812 -330.289062 L -102.167969 -330.289062 C -104.910156 -330.285156 -107.652344 -330.214844 -110.390625 -330.078125 C -113.132812 -329.941406 -115.867188 -329.738281 -118.597656 -329.464844 C -121.324219 -329.195312 -124.046875 -328.855469 -126.761719 -328.449219 C -129.472656 -328.046875 -132.175781 -327.574219 -134.863281 -327.039062 C -137.554688 -326.5 -140.230469 -325.898438 -142.890625 -325.226562 C -145.550781 -324.558594 -148.191406 -323.828125 -150.816406 -323.027344 C -153.441406 -322.230469 -156.046875 -321.367188 -158.628906 -320.441406 C -161.210938 -319.515625 -163.769531 -318.527344 -166.300781 -317.476562 C -168.835938 -316.425781 -171.339844 -315.3125 -173.820312 -314.140625 C -176.300781 -312.964844 -178.75 -311.730469 -181.167969 -310.4375 C -183.585938 -309.140625 -185.972656 -307.789062 -188.324219 -306.378906 C -190.675781 -304.96875 -192.992188 -303.5 -195.273438 -301.976562 C -197.554688 -300.449219 -199.796875 -298.871094 -201.996094 -297.234375 C -204.199219 -295.601562 -206.363281 -293.914062 -208.484375 -292.171875 C -210.601562 -290.433594 -212.679688 -288.640625 -214.710938 -286.800781 C -216.742188 -284.957031 -218.730469 -283.066406 -220.667969 -281.125 C -222.609375 -279.1875 -224.5 -277.199219 -226.34375 -275.167969 C -228.183594 -273.136719 -229.976562 -271.058594 -231.714844 -268.9375 C -233.457031 -266.816406 -235.144531 -264.65625 -236.777344 -262.453125 C -238.414062 -260.25 -239.992188 -258.007812 -241.515625 -255.726562 C -243.042969 -253.449219 -244.507812 -251.132812 -245.921875 -248.777344 C -247.332031 -246.425781 -248.683594 -244.039062 -249.976562 -241.621094 C -251.273438 -239.203125 -252.503906 -236.753906 -253.679688 -234.273438 C -254.855469 -231.796875 -255.964844 -229.289062 -257.015625 -226.753906 C -258.070312 -224.222656 -259.058594 -221.664062 -259.980469 -219.082031 C -260.90625 -216.5 -261.769531 -213.894531 -262.566406 -211.269531 C -263.367188 -208.648438 -264.097656 -206.003906 -264.765625 -203.34375 C -265.4375 -200.683594 -266.039062 -198.007812 -266.574219 -195.316406 C -267.113281 -192.628906 -267.585938 -189.925781 -267.988281 -187.214844 C -268.394531 -184.5 -268.730469 -181.777344 -269.003906 -179.050781 C -269.273438 -176.320312 -269.480469 -173.585938 -269.617188 -170.84375 C -269.753906 -168.105469 -269.824219 -165.363281 -269.828125 -162.621094 L -269.828125 702.042969 C -269.824219 704.785156 -269.753906 707.527344 -269.617188 710.265625 C -269.480469 713.003906 -269.273438 715.738281 -269.003906 718.46875 C -268.730469 721.199219 -268.394531 723.921875 -267.988281 726.632812 C -267.585938 729.347656 -267.113281 732.046875 -266.574219 734.738281 C -266.039062 737.429688 -265.4375 740.105469 -264.765625 742.765625 C -264.097656 745.425781 -263.367188 748.066406 -262.566406 750.691406 C -261.769531 753.316406 -260.90625 755.917969 -259.980469 758.5 C -259.058594 761.082031 -258.070312 763.640625 -257.015625 766.175781 C -255.964844 768.710938 -254.855469 771.214844 -253.679688 773.695312 C -252.507812 776.175781 -251.273438 778.625 -249.976562 781.042969 C -248.683594 783.460938 -247.332031 785.847656 -245.921875 788.199219 C -244.507812 790.550781 -243.042969 792.867188 -241.515625 795.148438 C -239.992188 797.429688 -238.414062 799.671875 -236.777344 801.875 C -235.144531 804.078125 -233.457031 806.238281 -231.714844 808.359375 C -229.976562 810.480469 -228.183594 812.554688 -226.34375 814.585938 C -224.5 816.621094 -222.609375 818.605469 -220.667969 820.546875 C -218.730469 822.484375 -216.742188 824.375 -214.710938 826.21875 C -212.679688 828.0625 -210.601562 829.851562 -208.484375 831.59375 C -206.363281 833.332031 -204.199219 835.023438 -201.996094 836.65625 C -199.796875 838.289062 -197.554688 839.871094 -195.273438 841.394531 C -192.992188 842.917969 -190.675781 844.386719 -188.324219 845.796875 C -185.972656 847.210938 -183.585938 848.5625 -181.167969 849.855469 C -178.75 851.152344 -176.300781 852.386719 -173.820312 853.558594 C -171.339844 854.734375 -168.835938 855.847656 -166.300781 856.898438 C -163.769531 857.949219 -161.210938 858.9375 -158.628906 859.863281 C -156.046875 860.789062 -153.441406 861.648438 -150.816406 862.449219 C -148.191406 863.246094 -145.550781 863.980469 -142.890625 864.648438 C -140.230469 865.316406 -137.554688 865.917969 -134.863281 866.457031 C -132.175781 866.996094 -129.472656 867.464844 -126.761719 867.871094 C -124.046875 868.277344 -121.324219 868.613281 -118.597656 868.886719 C -115.867188 869.15625 -113.132812 869.363281 -110.390625 869.5 C -107.652344 869.636719 -104.910156 869.707031 -102.167969 869.710938 L 99.132812 869.710938 C 100.824219 869.710938 102.515625 869.628906 104.203125 869.460938 C 105.890625 869.296875 107.5625 869.050781 109.226562 868.71875 C 110.886719 868.390625 112.527344 867.976562 114.148438 867.488281 C 115.773438 866.996094 117.367188 866.425781 118.929688 865.777344 C 120.496094 865.128906 122.027344 864.40625 123.519531 863.609375 C 125.015625 862.808594 126.46875 861.941406 127.875 861 C 129.285156 860.058594 130.644531 859.050781 131.953125 857.976562 C 133.265625 856.902344 134.519531 855.765625 135.71875 854.566406 C 136.914062 853.367188 138.050781 852.113281 139.128906 850.804688 C 140.203125 849.496094 141.210938 848.136719 142.152344 846.726562 C 143.09375 845.320312 143.964844 843.867188 144.761719 842.375 C 145.5625 840.878906 146.285156 839.347656 146.933594 837.785156 C 147.582031 836.21875 148.152344 834.625 148.644531 833.003906 C 149.136719 831.382812 149.546875 829.742188 149.878906 828.078125 C 150.210938 826.417969 150.457031 824.742188 150.625 823.058594 C 150.789062 821.371094 150.875 819.679688 150.875 817.984375 C 150.875 816.292969 150.789062 814.601562 150.625 812.914062 C 150.457031 811.230469 150.210938 809.554688 149.878906 807.894531 C 149.546875 806.230469 149.136719 804.589844 148.644531 802.96875 C 148.152344 801.347656 147.582031 799.753906 146.933594 798.1875 C 146.285156 796.621094 145.5625 795.09375 144.761719 793.597656 C 143.964844 792.105469 143.09375 790.652344 142.152344 789.246094 C 141.210938 787.835938 140.203125 786.476562 139.128906 785.167969 C 138.050781 783.855469 136.914062 782.601562 135.71875 781.40625 C 134.519531 780.207031 133.265625 779.070312 131.953125 777.996094 C 130.644531 776.921875 129.285156 775.914062 127.875 774.972656 C 126.46875 774.03125 125.015625 773.164062 123.519531 772.363281 C 122.027344 771.566406 120.496094 770.84375 118.929688 770.195312 C 117.367188 769.546875 115.773438 768.976562 114.148438 768.484375 C 112.527344 767.992188 110.886719 767.582031 109.226562 767.253906 C 107.5625 766.921875 105.890625 766.675781 104.203125 766.507812 C 102.515625 766.34375 100.824219 766.261719 99.132812 766.261719 L -93.117188 766.261719 C -94.316406 766.261719 -95.511719 766.230469 -96.710938 766.167969 C -97.90625 766.109375 -99.101562 766.019531 -100.296875 765.902344 C -101.488281 765.78125 -102.675781 765.632812 -103.863281 765.457031 C -105.046875 765.28125 -106.230469 765.074219 -107.402344 764.839844 C -108.578125 764.601562 -109.75 764.339844 -110.910156 764.046875 C -112.074219 763.753906 -113.226562 763.433594 -114.375 763.085938 C -115.519531 762.734375 -116.660156 762.359375 -117.789062 761.953125 C -118.914062 761.550781 -120.035156 761.117188 -121.140625 760.660156 C -122.246094 760.199219 -123.34375 759.710938 -124.425781 759.199219 C -125.507812 758.6875 -126.578125 758.148438 -127.636719 757.582031 C -128.691406 757.015625 -129.734375 756.425781 -130.761719 755.808594 C -131.789062 755.191406 -132.804688 754.550781 -133.800781 753.882812 C -134.796875 753.21875 -135.773438 752.527344 -136.738281 751.8125 C -137.699219 751.097656 -138.644531 750.359375 -139.570312 749.601562 C -140.496094 748.839844 -141.40625 748.054688 -142.292969 747.25 C -143.179688 746.445312 -144.046875 745.621094 -144.894531 744.773438 C -145.742188 743.925781 -146.570312 743.054688 -147.375 742.167969 C -148.179688 741.28125 -148.960938 740.371094 -149.722656 739.445312 C -150.484375 738.519531 -151.222656 737.574219 -151.933594 736.613281 C -152.648438 735.648438 -153.339844 734.671875 -154.003906 733.671875 C -154.671875 732.675781 -155.3125 731.664062 -155.929688 730.636719 C -156.546875 729.609375 -157.136719 728.566406 -157.703125 727.507812 C -158.269531 726.453125 -158.808594 725.382812 -159.320312 724.300781 C -159.832031 723.214844 -160.320312 722.121094 -160.777344 721.011719 C -161.238281 719.90625 -161.667969 718.789062 -162.074219 717.660156 C -162.480469 716.53125 -162.855469 715.394531 -163.203125 714.246094 C -163.554688 713.101562 -163.875 711.945312 -164.164062 710.785156 C -164.457031 709.621094 -164.722656 708.453125 -164.957031 707.277344 C -165.191406 706.101562 -165.398438 704.921875 -165.574219 703.734375 C -165.75 702.550781 -165.898438 701.359375 -166.015625 700.167969 C -166.136719 698.976562 -166.226562 697.78125 -166.285156 696.582031 C -166.34375 695.386719 -166.375 694.1875 -166.378906 692.988281 L -166.378906 -153.570312 C -166.375 -154.769531 -166.34375 -155.964844 -166.285156 -157.164062 C -166.226562 -158.359375 -166.136719 -159.554688 -166.015625 -160.746094 C -165.898438 -161.941406 -165.75 -163.128906 -165.574219 -164.316406 C -165.398438 -165.5 -165.191406 -166.679688 -164.957031 -167.855469 C -164.722656 -169.03125 -164.457031 -170.199219 -164.164062 -171.363281 C -163.875 -172.527344 -163.554688 -173.679688 -163.203125 -174.828125 C -162.855469 -175.972656 -162.480469 -177.113281 -162.074219 -178.238281 C -161.671875 -179.367188 -161.238281 -180.484375 -160.777344 -181.59375 C -160.320312 -182.699219 -159.832031 -183.796875 -159.320312 -184.878906 C -158.808594 -185.960938 -158.269531 -187.03125 -157.703125 -188.089844 C -157.136719 -189.148438 -156.546875 -190.1875 -155.929688 -191.21875 C -155.3125 -192.246094 -154.671875 -193.257812 -154.003906 -194.253906 C -153.339844 -195.25 -152.648438 -196.230469 -151.933594 -197.191406 C -151.222656 -198.15625 -150.484375 -199.101562 -149.722656 -200.027344 C -148.960938 -200.953125 -148.179688 -201.859375 -147.375 -202.75 C -146.570312 -203.636719 -145.742188 -204.503906 -144.894531 -205.351562 C -144.046875 -206.199219 -143.179688 -207.027344 -142.292969 -207.832031 C -141.40625 -208.636719 -140.496094 -209.417969 -139.570312 -210.179688 C -138.644531 -210.941406 -137.699219 -211.679688 -136.738281 -212.390625 C -135.773438 -213.105469 -134.796875 -213.796875 -133.800781 -214.464844 C -132.804688 -215.128906 -131.789062 -215.769531 -130.761719 -216.386719 C -129.734375 -217.003906 -128.691406 -217.597656 -127.636719 -218.160156 C -126.578125 -218.726562 -125.507812 -219.265625 -124.425781 -219.78125 C -123.34375 -220.292969 -122.246094 -220.777344 -121.140625 -221.238281 C -120.035156 -221.699219 -118.914062 -222.128906 -117.789062 -222.535156 C -116.660156 -222.941406 -115.519531 -223.316406 -114.375 -223.664062 C -113.226562 -224.015625 -112.074219 -224.335938 -110.910156 -224.628906 C -109.75 -224.917969 -108.578125 -225.183594 -107.402344 -225.417969 C -106.230469 -225.652344 -105.046875 -225.859375 -103.863281 -226.035156 C -102.675781 -226.214844 -101.488281 -226.363281 -100.296875 -226.480469 C -99.101562 -226.597656 -97.90625 -226.6875 -96.710938 -226.75 C -95.511719 -226.808594 -94.316406 -226.839844 -93.117188 -226.84375 L 99.132812 -226.84375 C 100.824219 -226.84375 102.515625 -226.925781 104.203125 -227.089844 C 105.886719 -227.257812 107.5625 -227.503906 109.222656 -227.835938 C 110.882812 -228.167969 112.523438 -228.578125 114.144531 -229.070312 C 115.765625 -229.5625 117.359375 -230.132812 118.925781 -230.78125 C 120.492188 -231.429688 122.019531 -232.152344 123.515625 -232.949219 C 125.007812 -233.75 126.460938 -234.617188 127.867188 -235.558594 C 129.277344 -236.5 130.636719 -237.507812 131.945312 -238.582031 C 133.253906 -239.65625 134.507812 -240.792969 135.707031 -241.992188 C 136.902344 -243.191406 138.039062 -244.441406 139.113281 -245.753906 C 140.1875 -247.0625 141.195312 -248.421875 142.136719 -249.828125 C 143.078125 -251.238281 143.949219 -252.691406 144.746094 -254.183594 C 145.546875 -255.675781 146.269531 -257.207031 146.917969 -258.773438 C 147.566406 -260.335938 148.136719 -261.929688 148.628906 -263.550781 C 149.121094 -265.171875 149.53125 -266.8125 149.863281 -268.476562 C 150.191406 -270.136719 150.441406 -271.808594 150.605469 -273.496094 C 150.773438 -275.183594 150.855469 -276.871094 150.855469 -278.566406 C 150.855469 -280.261719 150.773438 -281.949219 150.605469 -283.636719 C 150.441406 -285.320312 150.191406 -286.996094 149.863281 -288.65625 C 149.53125 -290.320312 149.121094 -291.960938 148.628906 -293.582031 C 148.136719 -295.203125 147.566406 -296.792969 146.917969 -298.359375 C 146.269531 -299.925781 145.546875 -301.453125 144.746094 -302.949219 C 143.949219 -304.441406 143.078125 -305.894531 142.136719 -307.300781 C 141.195312 -308.710938 140.1875 -310.070312 139.113281 -311.378906 C 138.039062 -312.6875 136.902344 -313.941406 135.707031 -315.140625 C 134.507812 -316.339844 133.253906 -317.472656 131.945312 -318.550781 C 130.636719 -319.625 129.277344 -320.632812 127.867188 -321.574219 C 126.460938 -322.515625 125.007812 -323.382812 123.515625 -324.183594 C 122.019531 -324.980469 120.492188 -325.703125 118.925781 -326.351562 C 117.359375 -327 115.765625 -327.570312 114.144531 -328.0625 C 112.523438 -328.554688 110.882812 -328.964844 109.222656 -329.296875 C 107.5625 -329.625 105.886719 -329.875 104.203125 -330.039062 C 102.515625 -330.207031 100.824219 -330.289062 99.132812 -330.289062 Z M 467.28125 436.238281 L 565.71875 337.800781 C 566.445312 337.078125 567.046875 336.265625 567.527344 335.363281 C 568.011719 334.460938 568.351562 333.507812 568.550781 332.503906 C 568.75 331.5 568.800781 330.488281 568.699219 329.472656 C 568.601562 328.453125 568.355469 327.472656 567.960938 326.527344 C 567.570312 325.582031 567.050781 324.714844 566.402344 323.921875 C 565.753906 323.132812 565.003906 322.453125 564.152344 321.886719 C 563.300781 321.316406 562.386719 320.882812 561.410156 320.585938 C 560.429688 320.289062 559.429688 320.140625 558.40625 320.140625 L 71.390625 320.140625 C 69.695312 320.140625 68.007812 320.058594 66.320312 319.890625 C 64.636719 319.726562 62.960938 319.476562 61.300781 319.148438 C 59.636719 318.816406 57.996094 318.40625 56.375 317.914062 C 54.753906 317.421875 53.160156 316.851562 51.597656 316.203125 C 50.03125 315.554688 48.5 314.832031 47.007812 314.035156 C 45.515625 313.234375 44.0625 312.367188 42.652344 311.425781 C 41.246094 310.484375 39.886719 309.476562 38.578125 308.402344 C 37.265625 307.324219 36.015625 306.191406 34.816406 304.992188 C 33.617188 303.792969 32.480469 302.539062 31.40625 301.230469 C 30.332031 299.921875 29.324219 298.5625 28.382812 297.152344 C 27.441406 295.746094 26.570312 294.292969 25.773438 292.800781 C 24.976562 291.304688 24.25 289.777344 23.601562 288.210938 C 22.957031 286.644531 22.386719 285.054688 21.894531 283.433594 C 21.402344 281.8125 20.992188 280.167969 20.660156 278.507812 C 20.328125 276.847656 20.082031 275.171875 19.914062 273.488281 C 19.75 271.800781 19.667969 270.109375 19.667969 268.417969 C 19.667969 266.722656 19.75 265.03125 19.914062 263.347656 C 20.082031 261.660156 20.328125 259.988281 20.660156 258.324219 C 20.992188 256.664062 21.402344 255.023438 21.894531 253.402344 C 22.386719 251.78125 22.957031 250.1875 23.601562 248.621094 C 24.25 247.058594 24.976562 245.527344 25.773438 244.035156 C 26.570312 242.539062 27.441406 241.089844 28.382812 239.679688 C 29.324219 238.273438 30.332031 236.914062 31.40625 235.601562 C 32.480469 234.292969 33.617188 233.039062 34.816406 231.84375 C 36.015625 230.644531 37.265625 229.507812 38.578125 228.433594 C 39.886719 227.359375 41.246094 226.351562 42.652344 225.410156 C 44.0625 224.46875 45.515625 223.597656 47.007812 222.800781 C 48.5 222 50.03125 221.277344 51.597656 220.628906 C 53.160156 219.980469 54.753906 219.410156 56.375 218.917969 C 57.996094 218.429688 59.636719 218.015625 61.300781 217.6875 C 62.960938 217.355469 64.636719 217.109375 66.320312 216.941406 C 68.007812 216.777344 69.695312 216.691406 71.390625 216.691406 L 555.820312 216.691406 C 556.84375 216.695312 557.84375 216.546875 558.824219 216.25 C 559.800781 215.953125 560.71875 215.519531 561.566406 214.953125 C 562.417969 214.382812 563.167969 213.703125 563.816406 212.914062 C 564.464844 212.121094 564.984375 211.253906 565.375 210.308594 C 565.761719 209.363281 566.003906 208.378906 566.101562 207.363281 C 566.195312 206.347656 566.144531 205.335938 565.945312 204.335938 C 565.746094 203.332031 565.40625 202.378906 564.929688 201.476562 C 564.449219 200.574219 563.851562 199.761719 563.132812 199.035156 L 467.28125 103.183594 C 466.121094 101.964844 465.015625 100.695312 463.972656 99.375 C 462.933594 98.050781 461.957031 96.683594 461.042969 95.265625 C 460.132812 93.851562 459.289062 92.394531 458.515625 90.898438 C 457.746094 89.40625 457.042969 87.875 456.417969 86.3125 C 455.792969 84.75 455.242188 83.160156 454.765625 81.546875 C 454.289062 79.929688 453.894531 78.296875 453.574219 76.644531 C 453.253906 74.992188 453.015625 73.328125 452.855469 71.652344 C 452.695312 69.976562 452.613281 68.296875 452.613281 66.613281 C 452.613281 64.929688 452.695312 63.25 452.855469 61.574219 C 453.015625 59.898438 453.253906 58.230469 453.574219 56.578125 C 453.894531 54.925781 454.289062 53.292969 454.765625 51.675781 C 455.242188 50.0625 455.792969 48.472656 456.417969 46.910156 C 457.042969 45.347656 457.746094 43.820312 458.515625 42.324219 C 459.289062 40.828125 460.132812 39.371094 461.042969 37.957031 C 461.957031 36.542969 462.933594 35.171875 463.972656 33.851562 C 465.015625 32.527344 466.121094 31.257812 467.28125 30.042969 C 468.480469 28.847656 469.734375 27.710938 471.046875 26.640625 C 472.355469 25.566406 473.714844 24.5625 475.125 23.621094 C 476.535156 22.683594 477.984375 21.816406 479.480469 21.019531 C 480.972656 20.222656 482.503906 19.5 484.066406 18.855469 C 485.632812 18.207031 487.226562 17.636719 488.84375 17.148438 C 490.464844 16.65625 492.105469 16.246094 493.765625 15.917969 C 495.425781 15.585938 497.101562 15.339844 498.785156 15.175781 C 500.46875 15.007812 502.160156 14.925781 503.851562 14.925781 C 505.546875 14.925781 507.234375 15.007812 508.921875 15.175781 C 510.605469 15.339844 512.277344 15.585938 513.9375 15.917969 C 515.597656 16.246094 517.238281 16.65625 518.859375 17.148438 C 520.480469 17.636719 522.074219 18.207031 523.636719 18.855469 C 525.203125 19.5 526.730469 20.222656 528.226562 21.019531 C 529.71875 21.816406 531.171875 22.683594 532.582031 23.621094 C 533.988281 24.5625 535.347656 25.566406 536.660156 26.640625 C 537.96875 27.710938 539.222656 28.847656 540.421875 30.042969 L 780.09375 269.710938 L 540.421875 509.378906 C 539.222656 510.574219 537.96875 511.707031 536.660156 512.78125 C 535.347656 513.851562 533.988281 514.859375 532.582031 515.796875 C 531.171875 516.734375 529.71875 517.605469 528.226562 518.402344 C 526.734375 519.199219 525.203125 519.917969 523.636719 520.566406 C 522.074219 521.210938 520.480469 521.78125 518.859375 522.273438 C 517.238281 522.761719 515.597656 523.171875 513.9375 523.503906 C 512.277344 523.832031 510.605469 524.078125 508.921875 524.246094 C 507.234375 524.410156 505.546875 524.492188 503.851562 524.492188 C 502.160156 524.492188 500.46875 524.410156 498.785156 524.246094 C 497.101562 524.078125 495.429688 523.832031 493.765625 523.503906 C 492.105469 523.171875 490.464844 522.761719 488.84375 522.273438 C 487.226562 521.78125 485.632812 521.210938 484.066406 520.566406 C 482.503906 519.917969 480.972656 519.199219 479.480469 518.402344 C 477.984375 517.605469 476.535156 516.734375 475.125 515.796875 C 473.714844 514.859375 472.355469 513.851562 471.046875 512.78125 C 469.734375 511.707031 468.480469 510.574219 467.28125 509.378906 C 466.121094 508.160156 465.015625 506.890625 463.972656 505.570312 C 462.933594 504.246094 461.957031 502.878906 461.042969 501.464844 C 460.132812 500.046875 459.289062 498.59375 458.515625 497.097656 C 457.746094 495.601562 457.046875 494.070312 456.417969 492.507812 C 455.792969 490.945312 455.242188 489.359375 454.765625 487.742188 C 454.289062 486.128906 453.894531 484.492188 453.574219 482.839844 C 453.253906 481.1875 453.015625 479.523438 452.855469 477.847656 C 452.695312 476.171875 452.613281 474.492188 452.613281 472.808594 C 452.613281 471.125 452.695312 469.445312 452.855469 467.769531 C 453.015625 466.09375 453.253906 464.429688 453.574219 462.777344 C 453.894531 461.121094 454.289062 459.488281 454.765625 457.875 C 455.242188 456.257812 455.792969 454.667969 456.417969 453.105469 C 457.042969 451.542969 457.746094 450.015625 458.515625 448.519531 C 459.289062 447.023438 460.132812 445.566406 461.042969 444.152344 C 461.957031 442.738281 462.933594 441.367188 463.972656 440.046875 C 465.015625 438.722656 466.121094 437.453125 467.28125 436.238281 Z M 467.28125 436.238281 " fill-opacity="1" fill-rule="nonzero"/></g></g></g></g></svg>