<svg width="35" height="35" viewBox="0 0 35 35" fill="none" xmlns="http://www.w3.org/2000/svg">
<rect x="0.5" y="0.5" width="34" height="34" rx="4.5" fill="#151515" stroke="#303030"/>
<path d="M18.4081 12.12L15.6541 24H12.5581L15.3121 12.12H18.4081ZM10.8481 12.12L8.09409 24H4.99809L7.75209 12.12H10.8481ZM15.8881 16.818L15.3301 19.212H7.62609L8.18409 16.818H15.8881Z" fill="url(#paint0_linear_160_13)"/>
<path d="M18.252 24L21.006 12.12H25.47C26.886 12.12 27.99 12.438 28.782 13.074C29.586 13.698 29.988 14.568 29.988 15.684C29.988 16.548 29.784 17.316 29.376 17.988C28.968 18.648 28.38 19.17 27.612 19.554C26.844 19.926 25.932 20.112 24.876 20.112H20.808L21.33 17.79H24.786C25.254 17.79 25.644 17.706 25.956 17.538C26.28 17.358 26.52 17.13 26.676 16.854C26.844 16.566 26.928 16.254 26.928 15.918C26.928 15.462 26.784 15.102 26.496 14.838C26.208 14.574 25.752 14.442 25.128 14.442H23.562L21.348 24H18.252Z" fill="url(#paint1_linear_160_13)"/>
<defs>
<linearGradient id="paint0_linear_160_13" x1="18" y1="17.5" x2="2.15818" y2="17.5" gradientUnits="userSpaceOnUse">
<stop stop-color="#26C1B1"/>
<stop offset="1" stop-color="#198176"/>
</linearGradient>
<linearGradient id="paint1_linear_160_13" x1="10.915" y1="17.5" x2="30" y2="17.5" gradientUnits="userSpaceOnUse">
<stop stop-color="#D6D6D6"/>
<stop offset="1" stop-color="#999999"/>
</linearGradient>
</defs>
</svg>
