<svg width="1000" height="1000" viewBox="0 0 1000 1000" fill="none" xmlns="http://www.w3.org/2000/svg">
<g clip-path="url(#clip0_769_21)">
<rect width="1000" height="1000" fill="#0B53BF"/>
<g clip-path="url(#clip1_769_21)">
<mask id="mask0_769_21" style="mask-type:luminance" maskUnits="userSpaceOnUse" x="125" y="125" width="750" height="750">
<path d="M875 125H125V875H875V125Z" fill="white"/>
</mask>
<g mask="url(#mask0_769_21)">
<path d="M500 875C707.107 875 875 707.107 875 500C875 292.893 707.107 125 500 125C292.893 125 125 292.893 125 500C125 707.107 292.893 875 500 875Z" fill="#0B53BF"/>
<path d="M579.688 589.301C563.281 595.863 545.469 599.613 528.359 599.613C494.476 599.613 462.53 585.183 447.266 550.395H521.797L536.328 515.238H438.591C438.13 510.396 437.891 505.322 437.891 500.004C437.891 494.686 438.13 489.612 438.591 484.77H548.75L563.281 449.613H447.266C462.53 414.825 494.476 400.395 528.359 400.395C545.469 400.395 563.281 404.145 579.688 410.707L594.687 375.082C574.531 364.535 551.797 359.379 529.063 359.379C474.191 359.379 418.723 390.056 398.645 449.613H362.656V484.77H391.435C391.006 489.705 390.781 494.784 390.781 500.004C390.781 505.223 391.004 510.302 391.435 515.238H362.656V550.395H398.645C418.723 609.952 474.191 640.629 529.063 640.629C551.797 640.629 574.531 635.473 594.687 624.926L579.688 589.301Z" fill="white" stroke="#0B53BF" stroke-width="0.03" stroke-miterlimit="10"/>
<path d="M265.625 500.002C265.625 393.831 336.172 304.299 432.5 275.237V226.956C309.688 256.956 218.75 367.815 218.75 500.002C218.75 632.19 309.688 743.049 432.5 773.049V724.768C336.172 695.94 265.625 606.174 265.625 500.002Z" fill="white" stroke="#0B53BF" stroke-width="0.03" stroke-miterlimit="10"/>
<path d="M567.5 226.956V275.237C663.828 304.299 734.375 393.831 734.375 500.002C734.375 606.174 663.828 695.706 567.5 724.768V773.049C690.313 743.049 781.25 632.19 781.25 500.002C781.25 367.815 690.313 256.956 567.5 226.956Z" fill="white" stroke="#0B53BF" stroke-width="0.03" stroke-miterlimit="10"/>
</g>
</g>
</g>
<defs>
<clipPath id="clip0_769_21">
<rect width="1000" height="1000" fill="white"/>
</clipPath>
<clipPath id="clip1_769_21">
<rect width="750" height="750" fill="white" transform="translate(125 125)"/>
</clipPath>
</defs>
</svg>
