<svg width="1000" height="1000" viewBox="0 0 1000 1000" fill="none" xmlns="http://www.w3.org/2000/svg">
<g clip-path="url(#clip0_748_62)">
<rect width="1000" height="1000" fill="black"/>
<path d="M610.616 302.213C611.511 302.373 611.511 302.373 612.425 302.535C638.947 307.312 663.51 319.695 682.941 338.376C682.641 340.677 681.491 341.71 679.864 343.294C679.348 343.802 678.832 344.309 678.301 344.833C677.752 345.365 677.204 345.896 676.655 346.428C673.498 349.511 670.386 352.574 667.52 355.93C665.319 358.424 662.891 360.707 660.517 363.038C658.6 364.933 656.735 366.838 654.975 368.883C652.817 371.394 650.481 373.703 648.12 376.022C645.461 378.635 642.891 381.229 640.563 384.145C638.553 383.578 637.294 382.676 635.795 381.284C622.466 369.276 604.639 364.27 587.096 364.157C586.703 364.152 586.309 364.147 585.903 364.143C578.449 364.077 571.403 365.149 564.319 367.582C563.897 367.725 563.478 367.867 563.044 368.015C553.887 371.238 545.715 376.229 538.291 382.449C537.708 382.917 537.708 382.917 537.113 383.397C526.09 392.522 519.115 406.259 515.124 419.742C514.82 420.697 514.82 420.697 514.509 421.671C513.872 424.177 513.59 426.634 513.358 429.206C513.312 429.725 513.265 430.244 513.218 430.778C511.696 448.985 515.69 464.38 524.73 480.201C592.136 480.481 592.136 480.481 660.904 480.766C660.904 501.65 660.904 522.534 660.904 544.05C625.85 544.05 590.795 544.05 554.677 544.05C555.237 548.525 555.796 553 556.373 557.61C556.48 561.228 556.574 564.79 556.532 568.401C556.513 569.924 556.509 571.449 556.504 572.972C556.474 580.056 556.171 586.951 554.782 593.914C554.682 594.428 554.579 594.943 554.474 595.474C554.172 596.98 553.861 598.484 553.548 599.989C553.47 600.376 553.392 600.764 553.311 601.162C550.907 612.95 545.958 624.326 540.552 635.021C540.178 635.767 539.805 636.512 539.421 637.281C599.276 637.281 659.13 637.281 720.799 637.281C720.799 657.979 720.799 678.675 720.799 700C619.922 700 519.047 700 415.113 700C415.113 679.302 415.113 658.606 415.113 637.281C424.809 636.907 434.505 636.535 444.495 636.15C451.751 634.932 451.751 634.932 458.515 632.655C458.913 632.484 459.312 632.313 459.722 632.138C473.819 625.854 482.41 611.31 487.819 597.435C488.482 595.66 489.095 593.874 489.698 592.078C489.877 591.57 490.055 591.063 490.238 590.539C492.566 583.491 492.751 576.118 492.735 568.77C492.735 568.12 492.735 568.12 492.737 567.456C492.728 560.872 492.207 554.906 490.263 548.57C489.89 547.079 489.516 545.586 489.133 544.05C464.333 544.05 439.534 544.05 413.983 544.05C413.983 523.166 413.983 502.282 413.983 480.766C427.594 480.766 441.207 480.766 455.23 480.766C454.484 478.155 453.739 475.545 452.97 472.855C452.541 471.016 452.134 469.195 451.77 467.346C451.682 466.927 451.593 466.509 451.503 466.079C449.747 457.283 449.37 448.478 449.371 439.533C449.368 437.765 449.348 436.001 449.327 434.233C449.267 423.55 450.742 413.124 453.606 402.826C453.773 402.225 453.938 401.622 454.109 401.002C460.122 379.993 471.119 360.825 486.076 344.942C487.444 343.491 487.444 343.491 488.62 341.969C489.59 340.771 490.534 339.823 491.711 338.836C493.016 337.726 494.294 336.609 495.536 335.429C502.258 329.06 509.964 323.819 517.949 319.165C518.611 318.764 519.272 318.363 519.935 317.96C529.306 312.369 539.625 308.363 550.103 305.379C551.18 305.069 552.253 304.742 553.325 304.413C571.344 299.303 592.278 298.715 610.616 302.213Z" fill="#499BE5"/>
<path d="M280.069 348.548C300.953 348.548 321.837 348.548 343.354 348.548C343.354 371.295 343.354 394.044 343.354 417.482C350.869 417.472 350.869 417.472 358.536 417.462C362.103 417.459 365.67 417.456 369.236 417.454C373.864 417.451 378.49 417.446 383.116 417.439C386.779 417.434 390.441 417.43 394.102 417.428C396.042 417.428 397.982 417.427 399.922 417.422C402.085 417.417 404.247 417.417 406.409 417.417C407.057 417.416 407.704 417.414 408.371 417.411C409.25 417.413 409.25 417.413 410.146 417.414C410.659 417.413 411.17 417.413 411.699 417.413C412.852 417.481 412.852 417.482 413.419 418.046C413.472 418.861 413.487 419.679 413.486 420.496C413.487 421.286 413.487 421.286 413.489 422.094C413.486 422.68 413.484 423.265 413.483 423.869C413.483 424.49 413.483 425.111 413.483 425.752C413.481 427.776 413.478 429.798 413.474 431.822C413.472 433.066 413.472 434.312 413.472 435.557C413.469 440.185 413.46 444.814 413.454 449.441C413.442 459.779 413.429 470.116 413.419 480.766C390.297 480.766 367.176 480.766 343.354 480.766C343.246 498.738 343.246 498.738 345.932 516.434C346.08 516.994 346.228 517.552 346.381 518.129C347.857 523.455 349.882 528.4 352.394 533.314C352.579 533.677 352.763 534.041 352.954 534.415C355.445 539.212 358.437 543.381 361.999 547.44C362.365 547.881 362.731 548.322 363.107 548.775C376.41 564.494 394.92 570.628 414.548 573.432C414.548 594.316 414.548 615.2 414.548 636.717C409.927 636.717 405.655 636.691 401.128 636.081C400.578 636.007 400.029 635.932 399.464 635.858C371.593 631.847 346.913 619.533 325.837 601.118C325.318 600.67 324.799 600.221 324.265 599.76C321.738 597.535 319.401 595.265 317.232 592.69C316.109 591.369 314.935 590.103 313.76 588.829C291.84 564.462 279.91 530.903 280.002 498.305C280 497.661 280 497.015 280 496.351C279.999 494.21 280.002 492.067 280.005 489.926C280.005 488.383 280.005 486.839 280.005 485.296C280.005 481.984 280.007 478.672 280.01 475.36C280.014 470.571 280.016 465.782 280.016 460.994C280.017 453.222 280.022 445.452 280.026 437.68C280.032 430.136 280.036 422.59 280.039 415.046C280.039 414.58 280.039 414.115 280.039 413.634C280.039 411.297 280.04 408.96 280.04 406.624C280.046 387.265 280.057 367.907 280.069 348.548Z" fill="#499BE5"/>
</g>
<defs>
<clipPath id="clip0_748_62">
<rect width="1000" height="1000" fill="white"/>
</clipPath>
</defs>
</svg>
