<svg width="1000" height="1000" viewBox="0 0 1000 1000" fill="none" xmlns="http://www.w3.org/2000/svg">
<g clip-path="url(#clip0_769_13)">
<rect width="1000" height="1000" fill="#0B53BF"/>
<path d="M500 867.188C702.792 867.188 867.188 702.792 867.188 500C867.188 297.208 702.792 132.812 500 132.812C297.208 132.812 132.812 297.208 132.812 500C132.812 702.792 297.208 867.188 500 867.188Z" fill="#0B53BF"/>
<path d="M566.101 232.639V279.915C660.423 308.372 729.499 396.038 729.499 499.998C729.499 603.958 660.423 691.624 566.101 720.081V767.356C686.355 737.981 775.398 629.431 775.398 499.998C775.398 370.564 686.355 262.014 566.101 232.639Z" fill="white"/>
<path d="M270.508 499.998C270.508 396.038 339.585 308.372 433.906 279.915V232.639C313.652 262.014 224.609 370.564 224.609 499.998C224.609 629.431 313.652 737.981 433.906 767.356V720.081C339.585 691.853 270.508 603.958 270.508 499.998Z" fill="white"/>
<path d="M598.687 551.177C598.687 457.314 451.582 495.87 451.582 444.004C451.582 425.415 466.499 413.481 494.956 413.481C528.921 413.481 540.625 430.005 544.297 452.266H591.113C586.937 410.489 562.959 384.111 522.955 376.253V339.355H477.056V374.936C433.23 380.517 405.684 406.039 405.684 444.004C405.684 538.325 553.018 502.984 553.018 553.93C553.018 573.208 534.429 586.059 502.988 586.059C461.909 586.059 448.37 567.93 443.32 542.915H397.652C400.61 588.673 428.826 617.312 477.056 624.459V660.645H522.955V624.94C570.026 618.859 598.687 591.476 598.687 551.177Z" fill="white"/>
</g>
<defs>
<clipPath id="clip0_769_13">
<rect width="1000" height="1000" fill="white"/>
</clipPath>
</defs>
</svg>
