<svg width="1000" height="1000" viewBox="0 0 1000 1000" fill="none" xmlns="http://www.w3.org/2000/svg">
<g clip-path="url(#clip0_769_13)">
<rect width="1000" height="1000" fill="black"/>
<path d="M500 744.792C635.195 744.792 744.792 635.195 744.792 500C744.792 364.805 635.195 255.208 500 255.208C364.805 255.208 255.208 364.805 255.208 500C255.208 635.195 364.805 744.792 500 744.792Z" fill="#0B53BF"/>
<path d="M544.067 321.759V353.276C606.948 372.248 652.999 430.692 652.999 499.998C652.999 569.305 606.948 627.749 544.067 646.72V678.237C624.236 658.654 683.598 586.287 683.598 499.998C683.598 413.709 624.236 341.343 544.067 321.759Z" fill="white"/>
<path d="M347.005 499.998C347.005 430.692 393.057 372.248 455.937 353.276V321.759C375.768 341.343 316.406 413.709 316.406 499.998C316.406 586.287 375.768 658.654 455.937 678.237V646.72C393.057 627.902 347.005 569.305 347.005 499.998Z" fill="white"/>
<path d="M565.791 534.118C565.791 471.543 467.721 497.247 467.721 462.669C467.721 450.277 477.666 442.321 496.638 442.321C519.281 442.321 527.083 453.337 529.531 468.177H560.742C557.958 440.326 541.973 422.741 515.303 417.502V392.904H484.704V416.624C455.486 420.345 437.122 437.36 437.122 462.669C437.122 525.55 535.345 501.989 535.345 535.954C535.345 548.805 522.953 557.373 501.992 557.373C474.606 557.373 465.58 545.287 462.214 528.61H431.768C433.74 559.116 452.551 578.208 484.704 582.973V607.097H515.303V583.293C546.684 579.239 565.791 560.984 565.791 534.118Z" fill="white"/>
</g>
<defs>
<clipPath id="clip0_769_13">
<rect width="1000" height="1000" fill="white"/>
</clipPath>
</defs>
</svg>
